<?xml version="1.0" encoding="utf-8"?>
<!-- Generator: Adobe Illustrator 23.0.6, SVG Export Plug-In . SVG Version: 6.00 Build 0)  -->
<svg version="1.1" id="Layer_1" xmlns="http://www.w3.org/2000/svg" xmlns:xlink="http://www.w3.org/1999/xlink" x="0px" y="0px"
	 viewBox="0 0 235.4 92.4" style="enable-background:new 0 0 235.4 92.4;" xml:space="preserve">
<style type="text/css">
	.st0{fill:#002E5A;}
	.st1{fill:#0591A1;}
</style>
<g>
	<path class="st0" d="M31.3,49.5c0.4,0,0.8,0.2,1.2,0.6c0.4,0.4,0.6,0.8,0.6,1.2c0,0.4-0.1,0.8-0.2,1c-0.8,1.9-2,3.6-3.5,5.2
		c-1.5,1.6-3.3,2.9-5.5,3.8c-2.1,1-4.5,1.5-7.1,1.5c-2.6,0-4.9-0.5-7-1.4c-2.1-1-3.9-2.3-5.3-4c-1.5-1.7-2.6-3.6-3.4-5.9
		C0.4,49.3,0,46.9,0,44.3c0-2.5,0.4-4.9,1.2-7.1c0.8-2.2,1.9-4.1,3.4-5.8c1.5-1.6,3.3-2.9,5.3-3.9c2.1-0.9,4.4-1.4,6.9-1.4
		c2.6,0,4.9,0.5,7,1.3c2.1,0.9,3.9,2.1,5.5,3.6c1.5,1.5,2.8,3.2,3.6,5c0.1,0.3,0.2,0.6,0.2,0.9c0,0.5-0.2,0.9-0.5,1.3
		c-0.4,0.4-0.7,0.6-1.1,0.6c-1,0-1.7-0.4-2.1-1.1c-1-2.2-2.6-4-4.8-5.5c-2.2-1.5-4.8-2.2-7.8-2.2c-2.7,0-5,0.6-6.9,1.9
		c-1.9,1.3-3.4,3-4.5,5.1c-1,2.2-1.6,4.6-1.6,7.2s0.5,5.1,1.6,7.3c1,2.2,2.5,3.9,4.5,5.2c1.9,1.3,4.3,1.9,6.9,1.9
		c2,0,3.8-0.4,5.5-1.1c1.7-0.8,3.1-1.8,4.3-3c1.2-1.2,2.1-2.6,2.8-4C29.8,49.9,30.4,49.5,31.3,49.5"/>
	<path class="st0" d="M39.3,26.3c0.6,0,1.1,0.2,1.5,0.6s0.6,0.9,0.6,1.3v32.9c0,0.4-0.2,0.8-0.6,1.2c-0.4,0.3-0.8,0.5-1.2,0.5
		c-0.6,0-1.1-0.2-1.5-0.5c-0.4-0.4-0.6-0.8-0.6-1.4V28.3c0-0.5,0.2-1,0.5-1.4C38.4,26.5,38.9,26.3,39.3,26.3"/>
	<path class="st0" d="M67.1,49c0-1.7-0.4-3.2-1.2-4.7c-0.8-1.4-1.9-2.6-3.2-3.5c-1.4-0.9-2.9-1.3-4.5-1.3c-1.7,0-3.2,0.5-4.5,1.4
		c-1.3,0.9-2.4,2.1-3.1,3.6c-0.8,1.5-1.2,3.1-1.2,4.7c0,1.7,0.4,3.2,1.1,4.7c0.8,1.5,1.8,2.7,3.1,3.6c1.3,0.9,2.8,1.4,4.4,1.4
		c1.7,0,3.2-0.5,4.6-1.4c1.4-0.9,2.5-2.1,3.3-3.6C66.6,52.3,67.1,50.7,67.1,49 M58.1,35.6c1.8,0,3.5,0.5,5,1.6
		c1.5,1.1,2.8,2.2,3.9,3.4l0.2-3.3c0-0.5,0.1-0.9,0.4-1.3c0.3-0.4,0.7-0.5,1.2-0.5c0.5,0,0.9,0.2,1.3,0.5c0.4,0.4,0.5,0.8,0.5,1.3
		v23.4c0,0.5-0.2,0.9-0.5,1.3c-0.4,0.4-0.8,0.5-1.3,0.5c-0.5,0-0.9-0.2-1.3-0.5c-0.4-0.4-0.5-0.8-0.5-1.3v-3
		c-1.1,1.2-2.5,2.4-4.1,3.4c-1.6,1-3.2,1.5-4.9,1.5c-1.8,0-3.4-0.4-5-1.1c-1.5-0.7-2.8-1.7-4-3c-1.1-1.3-2-2.7-2.7-4.3
		c-0.6-1.6-0.9-3.3-0.9-5.1c0-1.8,0.3-3.5,0.9-5.1c0.6-1.6,1.5-3.1,2.7-4.4c1.1-1.3,2.5-2.3,4-3C54.6,36,56.3,35.6,58.1,35.6"/>
	<path class="st0" d="M86.4,35.5c2.3,0,4.4,0.5,6.3,1.5c1.9,1,3.3,2.4,4.2,4.1c0.2,0.3,0.2,0.6,0.2,0.9c0,0.5-0.2,1-0.6,1.3
		c-0.4,0.4-0.8,0.5-1.3,0.5c-0.3,0-0.6-0.1-1-0.3c-0.3-0.2-0.6-0.4-0.7-0.7c-0.6-1.2-1.6-2.1-2.8-2.7c-1.3-0.6-2.8-0.9-4.4-0.9
		c-1.1,0-2.2,0.1-3.5,0.4c-1.3,0.3-2.3,0.7-3.3,1.4c-0.9,0.6-1.4,1.5-1.4,2.6c0,0.8,0.4,1.5,1.1,2c0.7,0.5,1.6,0.8,2.7,1
		c1.1,0.2,2.2,0.4,3.3,0.5c1.1,0.1,2.1,0.2,2.9,0.3c1.6,0.2,3.1,0.4,4.6,0.9c1.5,0.4,2.8,1.1,3.8,2c1,1,1.5,2.3,1.5,4.1
		c0,1.9-0.6,3.5-1.7,4.8c-1.1,1.2-2.6,2.1-4.4,2.7c-1.8,0.6-3.6,0.9-5.5,0.9c-2.7,0-5.1-0.5-7.3-1.6c-2.2-1-3.8-2.6-4.8-4.6
		c-0.1-0.2-0.2-0.5-0.2-0.9c0-0.5,0.2-1,0.5-1.3c0.4-0.4,0.8-0.5,1.3-0.5c0.3,0,0.7,0.1,1,0.3c0.3,0.2,0.6,0.4,0.7,0.7
		c0.7,1.4,1.9,2.5,3.4,3.1c1.5,0.7,3.3,1,5.4,1c1.2,0,2.4-0.1,3.6-0.4c1.2-0.3,2.2-0.8,3.1-1.4c0.8-0.7,1.2-1.6,1.2-2.7
		c0-0.9-0.4-1.6-1.1-2.1c-0.7-0.5-1.7-0.8-2.8-1c-1.1-0.2-2.3-0.3-3.4-0.4c-1.2-0.1-2.1-0.2-3-0.3c-1.5-0.2-2.9-0.5-4.4-0.9
		c-1.5-0.4-2.7-1.1-3.7-2.1c-1-0.9-1.5-2.3-1.5-4c0-1.5,0.4-2.7,1.1-3.7c0.7-1,1.7-1.9,2.8-2.5c1.2-0.7,2.4-1.2,3.8-1.5
		C83.7,35.6,85,35.5,86.4,35.5"/>
	<path class="st0" d="M122.8,49c0-1.7-0.4-3.2-1.2-4.7c-0.8-1.4-1.9-2.6-3.2-3.5c-1.4-0.9-2.9-1.3-4.5-1.3c-1.7,0-3.2,0.5-4.5,1.4
		c-1.3,0.9-2.4,2.1-3.1,3.6c-0.8,1.5-1.2,3.1-1.2,4.7c0,1.7,0.4,3.2,1.1,4.7c0.8,1.5,1.8,2.7,3.1,3.6c1.3,0.9,2.8,1.4,4.4,1.4
		c1.7,0,3.2-0.5,4.6-1.4c1.4-0.9,2.5-2.1,3.3-3.6C122.4,52.3,122.8,50.7,122.8,49 M113.8,35.6c1.8,0,3.5,0.5,5,1.6
		c1.5,1.1,2.8,2.2,3.9,3.4l0.2-3.3c0-0.5,0.1-0.9,0.4-1.3c0.3-0.4,0.7-0.5,1.2-0.5c0.5,0,0.9,0.2,1.3,0.5c0.4,0.4,0.5,0.8,0.5,1.3
		v23.4c0,0.5-0.2,0.9-0.5,1.3c-0.4,0.4-0.8,0.5-1.3,0.5c-0.5,0-0.9-0.2-1.3-0.5c-0.4-0.4-0.5-0.8-0.5-1.3v-3
		c-1.1,1.2-2.5,2.4-4.1,3.4c-1.6,1-3.2,1.5-4.9,1.5c-1.8,0-3.4-0.4-5-1.1c-1.5-0.7-2.9-1.7-4-3c-1.1-1.3-2-2.7-2.7-4.3
		c-0.6-1.6-0.9-3.3-0.9-5.1c0-1.8,0.3-3.5,0.9-5.1c0.6-1.6,1.5-3.1,2.7-4.4c1.1-1.3,2.5-2.3,4-3C110.3,36,112,35.6,113.8,35.6"/>
	<path class="st0" d="M141.5,58.8c1.8,0,3.3-0.5,4.5-1.4c1.3-1,2.2-2.2,2.9-3.7c0.7-1.5,1-3.1,1-4.7c0-1.6-0.3-3.2-1-4.6
		c-0.7-1.4-1.6-2.6-2.9-3.5c-1.2-0.9-2.7-1.4-4.5-1.4c-1.7,0-3.1,0.5-4.4,1.4c-1.2,1-2.2,2.2-2.9,3.7c-0.7,1.5-1,3.1-1,4.8
		c0,1.6,0.3,3.2,1,4.6c0.7,1.4,1.6,2.6,2.9,3.4C138.4,58.4,139.9,58.8,141.5,58.8 M141.4,62.7c-2.3,0-4.4-0.6-6.2-1.9
		c-1.8-1.2-3.2-2.9-4.3-4.9c-1-2-1.6-4.2-1.6-6.5c0-1.8,0.3-3.5,0.9-5.1c0.6-1.6,1.5-3.1,2.6-4.4c1.1-1.3,2.4-2.3,3.9-3.1
		c1.5-0.8,3.1-1.1,4.9-1.1c1.7,0,3.2,0.4,4.6,1.3c1.4,0.8,2.6,1.8,3.7,2.9V28.2c0-0.5,0.2-1,0.6-1.4c0.4-0.4,0.8-0.6,1.4-0.6
		c0.6,0,1,0.2,1.4,0.6c0.4,0.4,0.6,0.8,0.6,1.4v32.6c0,0.5-0.2,1-0.6,1.4c-0.4,0.4-0.8,0.6-1.4,0.6c-0.5,0-1-0.2-1.3-0.6
		c-0.3-0.4-0.5-0.8-0.5-1.4l-0.1-2.5c-1,1-2.2,2-3.7,3C144.9,62.2,143.2,62.7,141.4,62.7"/>
	<path class="st0" d="M169.8,39.5c-1.7,0-3.2,0.4-4.6,1.3c-1.4,0.9-2.4,2.1-3.3,3.5c-0.8,1.5-1.2,3-1.2,4.8c0,1.7,0.4,3.3,1.2,4.8
		c0.8,1.5,1.9,2.7,3.3,3.6c1.4,0.9,2.9,1.4,4.7,1.4c1.7,0,3.2-0.5,4.6-1.4c1.4-0.9,2.4-2.1,3.2-3.6c0.8-1.5,1.2-3.1,1.2-4.8
		c0-1.7-0.4-3.3-1.2-4.8c-0.8-1.5-1.9-2.7-3.3-3.6C173.1,39.9,171.5,39.5,169.8,39.5 M169.8,35.6c1.8,0,3.5,0.4,5.1,1.1
		c1.6,0.7,2.9,1.7,4.1,3c1.2,1.3,2.1,2.7,2.8,4.3c0.7,1.6,1,3.3,1,5.2c0,2.4-0.6,4.6-1.7,6.7c-1.1,2.1-2.7,3.7-4.6,5
		c-1.9,1.3-4.1,1.9-6.5,1.9c-2.5,0-4.7-0.6-6.6-1.9c-2-1.3-3.5-2.9-4.7-5c-1.1-2.1-1.7-4.3-1.7-6.7c0-1.8,0.3-3.5,1-5.1
		c0.7-1.6,1.6-3.1,2.8-4.4c1.2-1.3,2.5-2.3,4.1-3C166.3,35.9,168,35.6,169.8,35.6"/>
	<path class="st0" d="M12.7,90c1,0,1.9-0.3,2.6-0.8c0.8-0.5,1.3-1.2,1.8-2.1c0.4-0.9,0.6-1.8,0.6-2.8c0-1-0.2-2-0.6-2.9
		c-0.4-0.9-1-1.7-1.8-2.3c-0.8-0.6-1.7-0.9-2.7-0.9c-1.1,0-2,0.3-2.7,0.8c-0.8,0.6-1.3,1.3-1.8,2.1C7.7,82.1,7.5,83,7.5,84
		c0,1,0.2,1.9,0.6,2.9c0.4,0.9,1,1.7,1.8,2.2C10.7,89.7,11.6,90,12.7,90 M12.7,92.4c-1.1,0-2.1-0.3-3-0.9c-0.9-0.6-1.6-1.2-2.2-1.8
		l-0.1,1.5c0,0.3-0.1,0.6-0.3,0.8c-0.2,0.2-0.5,0.3-0.8,0.3c-0.3,0-0.6-0.1-0.8-0.3c-0.2-0.2-0.3-0.5-0.3-0.8V71.3
		c0-0.3,0.1-0.6,0.3-0.8c0.2-0.2,0.5-0.3,0.8-0.3c0.3,0,0.6,0.1,0.8,0.3c0.2,0.2,0.3,0.5,0.3,0.8v7.2c0.6-0.7,1.4-1.3,2.2-1.8
		c0.9-0.5,1.8-0.8,2.8-0.8c1.1,0,2.1,0.2,3,0.7c0.9,0.5,1.7,1.1,2.4,1.9c0.7,0.8,1.2,1.7,1.6,2.7c0.4,1,0.6,2,0.6,3.1
		c0,1.4-0.3,2.8-1,4c-0.6,1.2-1.5,2.2-2.6,3C15.4,92,14.1,92.4,12.7,92.4"/>
	<path class="st0" d="M23.8,76.9c0-0.3,0.1-0.5,0.4-0.7c0.3-0.2,0.5-0.3,0.7-0.3c0.4,0,0.7,0.1,0.9,0.3c0.2,0.2,0.4,0.5,0.4,0.9
		l0,14.2c0,0.3-0.1,0.6-0.4,0.8c-0.2,0.2-0.5,0.3-0.8,0.3c-0.3,0-0.6-0.1-0.8-0.4c-0.2-0.2-0.4-0.5-0.4-0.8L23.8,76.9z M25,73.4
		c-0.5,0-0.9-0.2-1.2-0.5c-0.3-0.3-0.5-0.7-0.5-1.2c0-0.5,0.2-0.9,0.5-1.2c0.3-0.3,0.7-0.5,1.2-0.5c0.5,0,0.9,0.2,1.2,0.5
		c0.3,0.3,0.5,0.7,0.5,1.2c0,0.5-0.2,0.9-0.5,1.2C25.8,73.3,25.4,73.4,25,73.4"/>
	<path class="st0" d="M38,78.2c-1,0-2,0.3-2.8,0.8c-0.8,0.5-1.5,1.3-2,2.2c-0.5,0.9-0.7,1.9-0.7,2.9c0,1.1,0.2,2,0.7,2.9
		c0.5,0.9,1.2,1.6,2,2.2c0.8,0.6,1.8,0.8,2.8,0.8c1,0,2-0.3,2.8-0.8c0.8-0.6,1.5-1.3,2-2.2c0.5-0.9,0.7-1.9,0.7-2.9
		c0-1-0.2-2-0.7-2.9c-0.5-0.9-1.2-1.6-2-2.2C40,78.5,39.1,78.2,38,78.2 M38,75.8c1.1,0,2.1,0.2,3.1,0.7c1,0.4,1.8,1.1,2.5,1.8
		c0.7,0.8,1.3,1.7,1.7,2.7c0.4,1,0.6,2,0.6,3.1c0,1.5-0.3,2.8-1,4.1c-0.7,1.3-1.6,2.3-2.8,3c-1.2,0.8-2.5,1.2-4,1.2
		c-1.5,0-2.8-0.4-4-1.2c-1.2-0.8-2.2-1.8-2.9-3c-0.7-1.3-1.1-2.6-1.1-4.1c0-1.1,0.2-2.1,0.6-3.1c0.4-1,1-1.9,1.7-2.7
		c0.7-0.8,1.6-1.4,2.5-1.8C35.9,76,36.9,75.8,38,75.8"/>
	<path class="st0" d="M56.9,75.8c1.4,0,2.7,0.3,3.9,0.9c1.2,0.6,2,1.4,2.6,2.5c0.1,0.2,0.1,0.4,0.1,0.6c0,0.3-0.1,0.6-0.3,0.8
		c-0.2,0.2-0.5,0.3-0.8,0.3c-0.2,0-0.4-0.1-0.6-0.2c-0.2-0.1-0.3-0.3-0.4-0.4c-0.4-0.7-1-1.3-1.7-1.6c-0.8-0.4-1.7-0.6-2.7-0.6
		c-0.7,0-1.4,0.1-2.1,0.3c-0.8,0.2-1.4,0.5-2,0.9c-0.6,0.4-0.8,0.9-0.8,1.6c0,0.5,0.2,0.9,0.7,1.2c0.4,0.3,1,0.5,1.7,0.6
		c0.7,0.1,1.3,0.2,2,0.3c0.7,0.1,1.3,0.1,1.7,0.2c1,0.1,1.9,0.3,2.8,0.5c0.9,0.3,1.7,0.7,2.3,1.2c0.6,0.6,0.9,1.4,0.9,2.5
		c0,1.2-0.3,2.1-1,2.9c-0.7,0.8-1.6,1.3-2.7,1.7c-1.1,0.4-2.2,0.5-3.4,0.5c-1.6,0-3.1-0.3-4.5-1c-1.3-0.6-2.3-1.6-3-2.8
		c-0.1-0.1-0.1-0.3-0.1-0.5c0-0.3,0.1-0.6,0.3-0.8c0.2-0.2,0.5-0.3,0.8-0.3c0.2,0,0.4,0.1,0.6,0.2c0.2,0.1,0.3,0.3,0.4,0.5
		c0.5,0.9,1.2,1.5,2.1,1.9c0.9,0.4,2,0.6,3.3,0.6c0.7,0,1.5-0.1,2.2-0.3c0.7-0.2,1.4-0.5,1.9-0.9c0.5-0.4,0.8-1,0.8-1.7
		c0-0.5-0.2-1-0.7-1.3c-0.5-0.3-1-0.5-1.7-0.6c-0.7-0.1-1.4-0.2-2.1-0.3c-0.7,0-1.3-0.1-1.8-0.2c-0.9-0.1-1.8-0.3-2.7-0.5
		c-0.9-0.3-1.7-0.7-2.3-1.3c-0.6-0.6-0.9-1.4-0.9-2.5c0-0.9,0.2-1.6,0.7-2.3c0.4-0.6,1-1.1,1.7-1.5c0.7-0.4,1.5-0.7,2.3-0.9
		C55.3,75.9,56.1,75.8,56.9,75.8"/>
	<path class="st0" d="M67.6,84.1c0-1.5,0.3-2.8,1-4.1c0.7-1.2,1.6-2.2,2.8-3c1.2-0.8,2.5-1.1,4-1.1c1.1,0,2.1,0.2,2.9,0.6
		c0.9,0.4,1.7,0.9,2.3,1.6c0.6,0.7,1.1,1.4,1.5,2.2c0.1,0.2,0.1,0.3,0.1,0.5c0,0.3-0.1,0.6-0.3,0.8c-0.2,0.2-0.5,0.3-0.8,0.3
		c-0.2,0-0.4-0.1-0.6-0.2c-0.2-0.1-0.4-0.3-0.4-0.5c-0.4-0.8-0.9-1.5-1.7-2.1c-0.8-0.6-1.7-0.9-2.8-0.9c-1,0-1.9,0.3-2.8,0.8
		c-0.8,0.5-1.5,1.3-2,2.2c-0.5,0.9-0.7,1.9-0.7,2.9c0,1,0.2,2,0.7,2.9c0.5,0.9,1.1,1.6,2,2.2c0.8,0.5,1.8,0.8,2.8,0.8
		c1.1,0,2-0.3,2.9-0.9c0.8-0.6,1.4-1.3,1.8-2.1c0.1-0.2,0.2-0.4,0.4-0.5c0.2-0.1,0.4-0.2,0.6-0.2c0.3,0,0.6,0.1,0.8,0.3
		c0.2,0.2,0.3,0.5,0.3,0.8c0,0.2,0,0.3-0.1,0.5c-0.3,0.8-0.8,1.5-1.5,2.1c-0.6,0.7-1.4,1.2-2.3,1.6c-0.9,0.4-1.9,0.6-2.9,0.6
		c-1.5,0-2.8-0.4-4-1.1c-1.2-0.8-2.1-1.8-2.8-3C67.9,86.9,67.6,85.6,67.6,84.1"/>
	<path class="st0" d="M86,76.9c0-0.3,0.1-0.5,0.4-0.7c0.3-0.2,0.5-0.3,0.7-0.3c0.4,0,0.7,0.1,0.9,0.3c0.2,0.2,0.4,0.5,0.4,0.9
		l0,14.2c0,0.3-0.1,0.6-0.3,0.8c-0.2,0.2-0.5,0.3-0.8,0.3c-0.3,0-0.6-0.1-0.8-0.4c-0.2-0.2-0.3-0.5-0.3-0.8L86,76.9z M87.2,73.4
		c-0.5,0-0.9-0.2-1.2-0.5c-0.3-0.3-0.5-0.7-0.5-1.2c0-0.5,0.2-0.9,0.5-1.2c0.3-0.3,0.7-0.5,1.2-0.5c0.5,0,0.9,0.2,1.2,0.5
		c0.3,0.3,0.5,0.7,0.5,1.2c0,0.5-0.2,0.9-0.5,1.2C88,73.3,87.6,73.4,87.2,73.4"/>
	<path class="st0" d="M105.1,82.8c-0.1-0.8-0.4-1.6-0.8-2.3c-0.5-0.7-1.1-1.2-1.8-1.6c-0.7-0.4-1.5-0.6-2.4-0.6
		c-0.9,0-1.7,0.2-2.5,0.6c-0.7,0.4-1.4,1-1.8,1.6c-0.5,0.7-0.8,1.4-1,2.2H105.1z M100.5,92.4c-1.5,0-2.9-0.4-4.2-1.1
		c-1.2-0.8-2.2-1.8-3-3c-0.7-1.3-1.1-2.7-1.1-4.2c0-1.4,0.3-2.8,1-4c0.7-1.2,1.6-2.2,2.8-3c1.2-0.7,2.5-1.1,4-1.1
		c1.3,0,2.6,0.3,3.7,1c1.1,0.7,2,1.6,2.7,2.7c0.7,1.1,1,2.4,1,3.7c0,0.5-0.1,0.9-0.3,1.3c-0.2,0.3-0.5,0.5-1,0.5H94.8
		c0.2,0.9,0.5,1.7,1,2.4c0.5,0.7,1.2,1.3,2,1.8c0.8,0.5,1.7,0.7,2.7,0.7c0.8,0,1.7-0.2,2.5-0.6c0.8-0.4,1.5-0.9,2-1.5
		c0.2-0.3,0.5-0.5,0.9-0.5c0.3,0,0.6,0.1,0.8,0.3c0.2,0.2,0.3,0.5,0.3,0.8c0,0.3-0.1,0.5-0.3,0.8c-0.8,0.9-1.7,1.7-2.8,2.2
		C102.9,92.1,101.7,92.4,100.5,92.4"/>
	<path class="st0" d="M112.2,75.8c0.3,0,0.6,0.1,0.8,0.3c0.2,0.2,0.3,0.5,0.3,0.8l0.1,1.9c0.4-0.5,0.8-0.9,1.3-1.4
		c0.5-0.5,1.1-0.9,1.7-1.2c0.6-0.3,1.4-0.5,2.2-0.5c1.4,0,2.5,0.4,3.4,1.1c0.8,0.7,1.5,1.7,1.8,2.8c0.4,1.2,0.6,2.4,0.6,3.8l0,7.7
		c0,0.3-0.1,0.6-0.4,0.8c-0.2,0.2-0.5,0.3-0.8,0.3c-0.3,0-0.6-0.1-0.8-0.4c-0.2-0.2-0.3-0.5-0.3-0.8l0-7.7c0-0.9-0.1-1.8-0.3-2.6
		c-0.2-0.8-0.5-1.5-1-1.9c-0.5-0.5-1.2-0.7-2.1-0.7c-1.7,0-3,0.5-3.9,1.4c-0.9,0.9-1.3,2.2-1.3,3.9v7.8c0,0.3-0.1,0.6-0.4,0.8
		c-0.2,0.2-0.5,0.3-0.8,0.3c-0.3,0-0.6-0.1-0.8-0.4c-0.2-0.2-0.3-0.5-0.3-0.8l0-14.2c0-0.3,0.1-0.6,0.3-0.9
		C111.6,75.9,111.9,75.8,112.2,75.8"/>
	<path class="st0" d="M127.9,84.1c0-1.5,0.3-2.8,1-4.1c0.7-1.2,1.6-2.2,2.8-3c1.2-0.8,2.5-1.1,4-1.1c1.1,0,2.1,0.2,2.9,0.6
		c0.9,0.4,1.7,0.9,2.3,1.6c0.6,0.7,1.1,1.4,1.5,2.2c0.1,0.2,0.1,0.3,0.1,0.5c0,0.3-0.1,0.6-0.3,0.8c-0.2,0.2-0.5,0.3-0.8,0.3
		c-0.2,0-0.4-0.1-0.6-0.2c-0.2-0.1-0.4-0.3-0.4-0.5c-0.4-0.8-0.9-1.5-1.7-2.1c-0.8-0.6-1.7-0.9-2.8-0.9c-1,0-1.9,0.3-2.8,0.8
		c-0.8,0.5-1.5,1.3-2,2.2c-0.5,0.9-0.7,1.9-0.7,2.9c0,1,0.2,2,0.7,2.9c0.5,0.9,1.1,1.6,2,2.2c0.8,0.5,1.8,0.8,2.8,0.8
		c1.1,0,2.1-0.3,2.9-0.9c0.8-0.6,1.4-1.3,1.7-2.1c0.1-0.2,0.2-0.4,0.4-0.5c0.2-0.1,0.4-0.2,0.6-0.2c0.3,0,0.6,0.1,0.8,0.3
		c0.2,0.2,0.3,0.5,0.3,0.8c0,0.2,0,0.3-0.1,0.5c-0.3,0.8-0.8,1.5-1.5,2.1c-0.6,0.7-1.4,1.2-2.3,1.6c-0.9,0.4-1.9,0.6-3,0.6
		c-1.5,0-2.8-0.4-4-1.1c-1.2-0.8-2.1-1.8-2.8-3C128.3,86.9,127.9,85.6,127.9,84.1"/>
	<path class="st0" d="M158.6,82.8c-0.1-0.8-0.4-1.6-0.8-2.3c-0.5-0.7-1.1-1.2-1.8-1.6c-0.7-0.4-1.5-0.6-2.4-0.6
		c-0.9,0-1.7,0.2-2.5,0.6c-0.7,0.4-1.4,1-1.8,1.6c-0.5,0.7-0.8,1.4-1,2.2H158.6z M154,92.4c-1.5,0-2.9-0.4-4.2-1.1
		c-1.2-0.8-2.2-1.8-3-3c-0.7-1.3-1.1-2.7-1.1-4.2c0-1.4,0.3-2.8,1-4c0.7-1.2,1.6-2.2,2.8-3c1.2-0.7,2.5-1.1,4-1.1
		c1.3,0,2.6,0.3,3.7,1c1.1,0.7,2,1.6,2.7,2.7c0.7,1.1,1,2.4,1,3.7c0,0.5-0.1,0.9-0.3,1.3c-0.2,0.3-0.5,0.5-1,0.5h-11.5
		c0.2,0.9,0.5,1.7,1,2.4c0.5,0.7,1.2,1.3,2,1.8c0.8,0.5,1.7,0.7,2.7,0.7c0.8,0,1.7-0.2,2.5-0.6c0.8-0.4,1.5-0.9,2-1.5
		c0.2-0.3,0.5-0.5,0.9-0.5c0.3,0,0.6,0.1,0.8,0.3c0.2,0.2,0.3,0.5,0.3,0.8c0,0.3-0.1,0.5-0.3,0.8c-0.8,0.9-1.7,1.7-2.8,2.2
		C156.3,92.1,155.2,92.4,154,92.4"/>
	<path class="st0" d="M172,75.8c1.4,0,2.7,0.3,3.9,0.9c1.2,0.6,2,1.4,2.6,2.5c0.1,0.2,0.1,0.4,0.1,0.6c0,0.3-0.1,0.6-0.3,0.8
		c-0.2,0.2-0.5,0.3-0.8,0.3c-0.2,0-0.4-0.1-0.6-0.2c-0.2-0.1-0.3-0.3-0.4-0.4c-0.4-0.7-1-1.3-1.7-1.6c-0.8-0.4-1.7-0.6-2.7-0.6
		c-0.7,0-1.4,0.1-2.1,0.3c-0.8,0.2-1.4,0.5-2,0.9c-0.6,0.4-0.8,0.9-0.8,1.6c0,0.5,0.2,0.9,0.7,1.2c0.4,0.3,1,0.5,1.7,0.6
		c0.7,0.1,1.3,0.2,2,0.3c0.7,0.1,1.3,0.1,1.7,0.2c1,0.1,1.9,0.3,2.8,0.5c0.9,0.3,1.7,0.7,2.3,1.2c0.6,0.6,0.9,1.4,0.9,2.5
		c0,1.2-0.3,2.1-1,2.9c-0.7,0.8-1.6,1.3-2.7,1.7c-1.1,0.4-2.2,0.5-3.4,0.5c-1.6,0-3.1-0.3-4.5-1c-1.3-0.6-2.3-1.6-3-2.8
		c-0.1-0.1-0.1-0.3-0.1-0.5c0-0.3,0.1-0.6,0.3-0.8c0.2-0.2,0.5-0.3,0.8-0.3c0.2,0,0.4,0.1,0.6,0.2c0.2,0.1,0.3,0.3,0.4,0.5
		c0.5,0.9,1.1,1.5,2.1,1.9c0.9,0.4,2,0.6,3.3,0.6c0.7,0,1.5-0.1,2.2-0.3c0.7-0.2,1.4-0.5,1.9-0.9c0.5-0.4,0.8-1,0.8-1.7
		c0-0.5-0.2-1-0.7-1.3c-0.5-0.3-1-0.5-1.7-0.6c-0.7-0.1-1.4-0.2-2.1-0.3c-0.7,0-1.3-0.1-1.8-0.2c-0.9-0.1-1.8-0.3-2.7-0.5
		c-0.9-0.3-1.7-0.7-2.3-1.3c-0.6-0.6-0.9-1.4-0.9-2.5c0-0.9,0.2-1.6,0.7-2.3c0.4-0.6,1-1.1,1.7-1.5c0.7-0.4,1.5-0.7,2.3-0.9
		C170.3,75.9,171.2,75.8,172,75.8"/>
	<path class="st1" d="M216,8.7c0,4.8-3.9,8.7-8.7,8.7c-4.8,0-8.7-3.9-8.7-8.7c0-4.8,3.9-8.7,8.7-8.7C212.1,0,216,3.9,216,8.7"/>
	<path class="st0" d="M184.5,19.2c-2.3-0.1-4.5-1-6.2-2.8c-3.4-3.5-3.2-9.2,0.3-12.5c3.6-3.4,9.2-3.2,12.5,0.3
		c1.7,1.8,2.5,4.1,2.4,6.3L193,27.8C192.9,21.5,190.8,19.4,184.5,19.2"/>
	<path class="st1" d="M209.7,33.2l0.4-0.6l9.1-14.7c0.1-0.1,0.2-0.2,0.2-0.4c-11.5,14-25.3,9.7-25.7-7.1c0,0,0,0,0,0L193,27.8
		c0,4.5,0.1,9.3,0.4,13.2c1,11.4,7.7,20.9,20.4,22.1C213.8,63.1,198.5,50.4,209.7,33.2"/>
	<path class="st0" d="M221.8,30.3c1.9,1.2,4.3,1.7,6.7,1.2c4.8-1.1,7.8-5.8,6.7-10.6c-1.1-4.8-5.8-7.8-10.6-6.7
		c-2.4,0.5-4.3,2-5.6,3.9L210,32.7C213.6,27.5,216.5,26.9,221.8,30.3"/>
</g>
</svg>
