<?xml version="1.0" encoding="utf-8"?>
<!-- Generator: Adobe Illustrator 23.0.1, SVG Export Plug-In . SVG Version: 6.00 Build 0)  -->
<svg version="1.1" id="Layer_1" xmlns="http://www.w3.org/2000/svg" xmlns:xlink="http://www.w3.org/1999/xlink" x="0px" y="0px"
	 width="453.6px" height="75.8px" viewBox="0 0 453.6 75.8" style="enable-background:new 0 0 453.6 75.8;" xml:space="preserve">
<style type="text/css">
	.st0{fill:#1A1A1A;}
	.st1{fill:#FFFFFF;}
	.st2{fill:#ED0D00;}
	.st3{fill:#FBA601;}
	.st4{fill:#FF3700;}
</style>
<g>
	<title>Untitled-1</title>
	<g>
		<path class="st0" d="M136.3,45.3c-0.4,3.4-1.6,5.9-3.6,7.7c-2,1.8-4.7,2.7-8.1,2.7c-2.4,0-4.5-0.6-6.3-1.8c-1.8-1.2-3.2-2.9-4.2-5
			s-1.5-4.6-1.5-7.4v-4.1c0-2.8,0.5-5.3,1.5-7.5s2.4-3.9,4.3-5.1c1.9-1.2,4-1.8,6.4-1.8c3.4,0,6.1,0.9,8.1,2.8s3.1,4.4,3.4,7.6h-2.7
			c-0.7-5.4-3.6-8.1-8.8-8.1c-2.9,0-5.2,1.1-6.9,3.2c-1.7,2.2-2.6,5.1-2.6,9v3.9c0,3.7,0.8,6.6,2.5,8.8c1.7,2.2,3.9,3.3,6.8,3.3
			c2.8,0,4.9-0.7,6.4-2c1.4-1.3,2.3-3.4,2.6-6.1H136.3z"/>
		<path class="st0" d="M157.5,52.2c-1.6,2.3-4.1,3.4-7.5,3.4c-2.5,0-4.4-0.7-5.8-2.2s-2-3.6-2-6.5V31.6h2.6v15.1
			c0,4.5,1.8,6.8,5.5,6.8c3.8,0,6.2-1.6,7.2-4.7V31.6h2.6v23.7h-2.5L157.5,52.2z"/>
		<path class="st0" d="M169.8,55.2h-2.6V21.6h2.6V55.2z"/>
		<path class="st0" d="M176.8,24.7c0-0.5,0.2-0.9,0.5-1.2c0.3-0.3,0.8-0.5,1.3-0.5c0.6,0,1,0.2,1.3,0.5c0.3,0.3,0.5,0.8,0.5,1.2
			c0,0.5-0.2,0.9-0.5,1.2c-0.3,0.3-0.8,0.5-1.3,0.5c-0.6,0-1-0.2-1.3-0.5C176.9,25.6,176.8,25.2,176.8,24.7z M179.8,55.2h-2.6V31.6
			h2.6V55.2z"/>
		<path class="st0" d="M189.4,31.6l0.1,4c0.9-1.5,2-2.6,3.3-3.3c1.3-0.8,2.8-1.1,4.4-1.1c2.5,0,4.4,0.7,5.7,2.1
			c1.2,1.4,1.9,3.6,1.9,6.4v15.5h-2.6V39.7c0-2.1-0.5-3.7-1.3-4.7c-0.9-1-2.3-1.6-4.2-1.6c-1.6,0-3.1,0.5-4.3,1.5
			c-1.2,1-2.2,2.4-2.8,4.1v16.2h-2.6V31.6H189.4z"/>
		<path class="st0" d="M226.5,55.2c-0.3-0.7-0.4-1.8-0.5-3.3c-0.9,1.2-2.1,2.1-3.5,2.8c-1.4,0.6-2.9,1-4.5,1c-2.3,0-4.1-0.6-5.5-1.9
			c-1.4-1.3-2.1-2.9-2.1-4.8c0-2.3,1-4.1,2.9-5.5s4.6-2,8-2h4.7v-2.7c0-1.7-0.5-3-1.6-4c-1-1-2.6-1.5-4.6-1.5
			c-1.8,0-3.3,0.5-4.5,1.4c-1.2,0.9-1.8,2.1-1.8,3.4l-2.6,0c0-1.9,0.9-3.5,2.6-4.9c1.8-1.4,3.9-2.1,6.5-2.1c2.6,0,4.7,0.7,6.2,2
			c1.5,1.3,2.3,3.2,2.4,5.5v11.2c0,2.3,0.2,4,0.7,5.1v0.3H226.5z M218.3,53.4c1.8,0,3.3-0.4,4.7-1.3s2.4-2,3-3.4v-5.2h-4.7
			c-2.6,0-4.7,0.5-6.1,1.4c-1.5,0.9-2.2,2.2-2.2,3.8c0,1.3,0.5,2.4,1.5,3.3S216.7,53.4,218.3,53.4z"/>
		<path class="st0" d="M246.5,33.8c-0.6-0.1-1.1-0.2-1.8-0.2c-1.6,0-3,0.5-4.1,1.4c-1.1,0.9-1.9,2.2-2.4,4v16.3h-2.6V31.6h2.6l0,3.8
			c1.4-2.8,3.6-4.2,6.7-4.2c0.7,0,1.3,0.1,1.7,0.3L246.5,33.8z"/>
		<path class="st0" d="M258.1,51.5l6.9-19.9h2.8l-10.1,27.7l-0.5,1.2c-1.3,2.9-3.3,4.3-6,4.3c-0.6,0-1.3-0.1-2-0.3l0-2.2l1.4,0.1
			c1.3,0,2.3-0.3,3.1-1c0.8-0.6,1.5-1.7,2-3.3l1.2-3.2l-8.9-23.5h2.9L258.1,51.5z"/>
		<path class="st0" d="M279.9,23.4l8.2,23.1l8.1-23.1h8.6v31.9h-6.6v-8.7l0.7-15l-8.6,23.7h-4.5l-8.6-23.7l0.7,15v8.7h-6.6V23.4
			H279.9z"/>
		<path class="st0" d="M321.1,55.7c-3.5,0-6.3-1.1-8.5-3.2c-2.2-2.1-3.3-5-3.3-8.5v-0.6c0-2.4,0.5-4.5,1.4-6.4
			c0.9-1.9,2.2-3.3,3.9-4.3c1.7-1,3.6-1.5,5.8-1.5c3.2,0,5.8,1,7.6,3.1c1.9,2,2.8,4.9,2.8,8.7v2.6h-15.1c0.2,1.5,0.8,2.8,1.8,3.7
			c1,0.9,2.3,1.4,3.9,1.4c2.4,0,4.3-0.9,5.7-2.6l3.1,3.5c-0.9,1.3-2.2,2.4-3.9,3.1C324.8,55.3,323,55.7,321.1,55.7z M320.3,36.2
			c-1.3,0-2.3,0.4-3.1,1.3c-0.8,0.9-1.3,2.1-1.5,3.6h8.8v-0.5c0-1.4-0.4-2.5-1.1-3.3C322.7,36.6,321.7,36.2,320.3,36.2z"/>
		<path class="st0" d="M333.4,43.2c0-3.7,0.8-6.6,2.5-8.8s3.9-3.3,6.8-3.3c2.3,0,4.2,0.9,5.7,2.6V21.6h6.3v33.6H349l-0.3-2.5
			c-1.6,2-3.6,3-6.1,3c-2.8,0-5-1.1-6.7-3.3S333.4,47.1,333.4,43.2z M339.7,43.7c0,2.2,0.4,3.9,1.2,5.1c0.8,1.2,1.9,1.8,3.4,1.8
			c2,0,3.3-0.8,4.1-2.5v-9.4c-0.8-1.6-2.2-2.5-4.1-2.5C341.2,36.3,339.7,38.8,339.7,43.7z"/>
		<path class="st0" d="M359.6,25.4c0-0.9,0.3-1.7,1-2.3c0.6-0.6,1.5-0.9,2.6-0.9c1.1,0,1.9,0.3,2.6,0.9c0.6,0.6,1,1.4,1,2.3
			c0,1-0.3,1.8-1,2.4c-0.6,0.6-1.5,0.9-2.6,0.9s-1.9-0.3-2.6-0.9C359.9,27.2,359.6,26.4,359.6,25.4z M366.3,55.2H360V31.6h6.3V55.2z
			"/>
		<path class="st0" d="M381.4,50.6c1.2,0,2.1-0.3,2.8-1c0.7-0.6,1.1-1.5,1.1-2.6h5.9c0,1.6-0.5,3.1-1.3,4.4c-0.9,1.3-2,2.4-3.5,3.1
			c-1.5,0.7-3.1,1.1-5,1.1c-3.4,0-6.1-1.1-8-3.2c-2-2.2-2.9-5.1-2.9-8.9v-0.4c0-3.6,1-6.6,2.9-8.7s4.6-3.3,8-3.3
			c3,0,5.3,0.8,7.1,2.5c1.8,1.7,2.7,3.9,2.7,6.7h-5.9c0-1.2-0.4-2.2-1.1-3c-0.7-0.8-1.7-1.2-2.9-1.2c-1.5,0-2.6,0.5-3.3,1.6
			c-0.8,1.1-1.1,2.8-1.1,5.2v0.7c0,2.4,0.4,4.2,1.1,5.3C378.7,50,379.8,50.6,381.4,50.6z"/>
		<path class="st0" d="M394.8,25.4c0-0.9,0.3-1.7,1-2.3c0.6-0.6,1.5-0.9,2.6-0.9c1.1,0,1.9,0.3,2.6,0.9c0.6,0.6,1,1.4,1,2.3
			c0,1-0.3,1.8-1,2.4c-0.6,0.6-1.5,0.9-2.6,0.9c-1.1,0-1.9-0.3-2.6-0.9C395.2,27.2,394.8,26.4,394.8,25.4z M401.5,55.2h-6.3V31.6
			h6.3V55.2z"/>
		<path class="st0" d="M412.6,31.6l0.2,2.7c1.7-2.1,4-3.2,6.8-3.2c2.5,0,4.4,0.7,5.6,2.2c1.2,1.5,1.9,3.7,1.9,6.6v15.3h-6.3V40.1
			c0-1.3-0.3-2.3-0.9-2.9c-0.6-0.6-1.6-0.9-2.9-0.9c-1.8,0-3.1,0.8-4,2.3v16.7h-6.3V31.6H412.6z"/>
		<path class="st0" d="M442.7,55.7c-3.5,0-6.3-1.1-8.5-3.2c-2.2-2.1-3.3-5-3.3-8.5v-0.6c0-2.4,0.5-4.5,1.4-6.4
			c0.9-1.9,2.2-3.3,3.9-4.3c1.7-1,3.6-1.5,5.8-1.5c3.2,0,5.8,1,7.6,3.1c1.9,2,2.8,4.9,2.8,8.7v2.6h-15.1c0.2,1.5,0.8,2.8,1.8,3.7
			c1,0.9,2.3,1.4,3.9,1.4c2.4,0,4.3-0.9,5.7-2.6l3.1,3.5c-0.9,1.3-2.2,2.4-3.9,3.1C446.5,55.3,444.7,55.7,442.7,55.7z M442,36.2
			c-1.3,0-2.3,0.4-3.1,1.3c-0.8,0.9-1.3,2.1-1.5,3.6h8.8v-0.5c0-1.4-0.4-2.5-1.1-3.3C444.4,36.6,443.4,36.2,442,36.2z"/>
	</g>
	<g>
		
			<rect id="XMLID_6_" x="17.2" y="17.2" transform="matrix(0.7071 -0.7071 0.7071 0.7071 -17.1656 41.4409)" class="st1" width="48.6" height="48.6"/>
		<g id="XMLID_1_">
			<path class="st2" d="M41.4,7.1L7.1,41.4l15,15l9.1-8.6c-0.5-0.8-0.8-1.7-0.9-2.5c-0.6-3,0.7-6.2,3.2-8.7
				c7.6-7.6,9.3-9.3,12.2-7.2l-8.8,9.2c-0.2,0.2-0.3,0.5-0.3,0.8c0,0.3,0.1,0.5,0.3,0.7l0.2,0.2c0.2,0.2,0.4,0.3,0.7,0.3
				c0.3,0,0.6-0.1,0.8-0.3l9.9-8.5c0.3,0.3,0.7,0.7,1,1c0.2,0.2,0.4,0.4,0.6,0.6l-8.4,9.9c-0.2,0.2-0.3,0.5-0.3,0.8
				c0,0.3,0.1,0.5,0.3,0.7l0.2,0.2c0.2,0.2,0.4,0.3,0.7,0.3c0.3,0,0.6-0.1,0.8-0.3l9.3-8.9c2.4,3,1,4.8-6.9,12.6
				c-2.3,2.3-5.2,3.5-8,3.3c-0.9-0.1-1.8-0.3-2.7-0.8l-8.8,9.2l15.2,15.2l34.3-34.3L41.4,7.1z"/>
			<g>
				<path class="st3" d="M75.8,7.1c-9.5-9.5-24.9-9.5-34.3,0c0,0,0,0,0,0l34.3,34.3l0,0c0,0,0,0,0,0C85.3,32,85.3,16.6,75.8,7.1z"/>
			</g>
			<g>
				<path class="st4" d="M7.1,7.1c9.5-9.5,24.9-9.5,34.3,0c0,0,0,0,0,0L7.1,41.4l0,0c0,0,0,0,0,0C-2.4,32-2.4,16.6,7.1,7.1z"/>
			</g>
		</g>
	</g>
</g>
</svg>
