<svg version="1.2" baseProfile="tiny-ps" xmlns="http://www.w3.org/2000/svg" viewBox="0 0 400 174" width="400" height="174">
	<title>Healthy_longevity_guide-2-svg</title>
	<defs>
		<clipPath clipPathUnits="userSpaceOnUse" id="cp1">
			<path d="M-3.12 -107.47L396.83 -113.48L402.85 285.48L2.9 291.48L-3.12 -107.47Z" />
		</clipPath>
	</defs>
	<style>
		tspan { white-space:pre }
		.shp0 { fill: #282a66 } 
		.shp1 { fill: #c3d6ee } 
	</style>
	<g id="Layer">
		<g id="Clip-Path" clip-path="url(#cp1)">
			<g id="Layer">
				<path id="Layer" class="shp0" d="M169.11 61.62L168.71 34.96L173.72 34.88L173.88 45.4C174.62 43.35 176.5 42.07 179.14 42.04C183.53 41.97 186 44.93 186.07 49.71L186.24 61.36L181.23 61.44L181.06 50.44C181.03 47.96 179.9 46.34 177.59 46.37C175.29 46.4 173.92 47.96 173.96 50.59L174.13 61.54L169.11 61.62Z" />
				<path id="Layer" fill-rule="evenodd" class="shp0" d="M192.07 44.73C193.84 42.76 196.09 41.78 198.84 41.74C201.77 41.7 204.05 42.57 205.65 44.41C207.29 46.22 208.13 48.54 208.17 51.42L208.19 52.63L194.35 52.84C194.58 55.79 196.44 57.81 199.26 57.77C201.35 57.74 202.73 56.88 203.43 55.18L207.97 55.12C207.56 57.02 206.56 58.57 205 59.76C203.45 60.96 201.55 61.57 199.36 61.6C196.39 61.65 194 60.73 192.25 58.9C190.5 57.06 189.59 54.7 189.54 51.82C189.5 49 190.34 46.65 192.07 44.73ZM203.34 49.23C202.98 46.79 201.34 45.25 198.89 45.28C196.51 45.32 194.85 46.99 194.45 49.37L203.34 49.23Z" />
				<path id="Layer" fill-rule="evenodd" class="shp0" d="M218.87 49.33L223.48 48.89L223.47 48.2C223.44 46.27 222.32 45.11 220.16 45.15C218.23 45.18 216.96 46.29 216.73 47.79L211.97 47.86C212.49 44.06 215.68 41.49 220.11 41.42C225.38 41.34 228.39 44.07 228.45 48.46L228.64 60.72L223.8 60.8L223.77 58.2C223.02 59.97 220.88 61.28 218.14 61.32C214.15 61.38 211.48 59.08 211.42 55.47C211.37 51.82 213.86 49.77 218.87 49.33ZM219.44 57.9C222.04 57.86 223.59 56.23 223.55 53.49L223.53 52.22L219.91 52.56C217.46 52.79 216.23 53.68 216.25 55.25C216.28 56.89 217.43 57.93 219.44 57.9Z" />
				<path id="Layer" class="shp0" d="M233 34L238.01 33.92L238.41 60.58L233.4 60.65L233 34Z" />
				<path id="Layer" class="shp0" d="M244.54 54.06L244.41 45.51L241.37 45.56L241.31 41.54L244.35 41.49L244.27 36.49L249.29 36.42L249.37 41.42L253.94 41.35L254 45.37L249.43 45.44L249.55 53.84C249.58 55.59 250.43 56.45 252.12 56.43C252.96 56.41 253.66 56.3 254.2 56.07L254.26 60.12C253.42 60.46 252.26 60.63 250.75 60.65C246.69 60.71 244.61 58.51 244.54 54.06Z" />
				<path id="Layer" class="shp0" d="M257.78 60.29L257.38 33.63L262.4 33.55L262.55 44.07C263.29 42.01 265.18 40.74 267.81 40.7C272.2 40.64 274.67 43.6 274.74 48.38L274.92 60.03L269.9 60.1L269.73 49.11C269.7 46.63 268.57 45 266.27 45.04C263.96 45.07 262.59 46.63 262.63 49.26L262.8 60.21L257.78 60.29Z" />
				<path id="Layer" class="shp0" d="M278.71 66.69L278.65 62.53C279.2 62.74 279.9 62.84 280.74 62.83C282.54 62.8 283.4 61.87 284 60.07L284.11 59.82L276.9 41L282.02 40.93L286.62 54.23L290.67 40.8L295.79 40.72L289.3 59.81L289.06 60.47C288.25 62.83 287.32 64.52 286.28 65.52C285.27 66.52 283.74 67.06 281.69 67.09C280.66 67.1 279.67 66.97 278.71 66.69Z" />
				<path id="Layer" class="shp0" d="M218.75 72.01L223.77 71.93L224.17 98.59L219.15 98.66L218.75 72.01Z" />
				<path id="Layer" fill-rule="evenodd" class="shp0" d="M237.76 98.82C234.94 98.86 232.58 97.95 230.69 96.08C228.83 94.17 227.88 91.85 227.83 89.04C227.79 86.22 228.67 83.87 230.47 81.95C232.31 79.98 234.64 79 237.46 78.96C240.27 78.91 242.63 79.83 244.49 81.74C246.39 83.61 247.34 85.93 247.38 88.74C247.42 91.55 246.54 93.9 244.71 95.87C242.9 97.8 240.57 98.78 237.76 98.82ZM237.69 94.69C239.16 94.67 240.32 94.07 241.18 92.89C242.04 91.71 242.46 90.35 242.44 88.82C242.42 87.28 241.96 85.94 241.06 84.82C240.16 83.66 238.98 83.1 237.52 83.12C236.05 83.14 234.89 83.74 234.03 84.92C233.17 86.07 232.75 87.43 232.77 88.96C232.8 90.5 233.26 91.84 234.15 92.99C235.05 94.15 236.23 94.72 237.69 94.69Z" />
				<path id="Layer" class="shp0" d="M251.15 98.18L250.86 79.19L255.7 79.12L255.74 82.04C256.66 79.8 258.47 78.64 261.18 78.6C265.57 78.53 268.04 81.49 268.11 86.31L268.28 97.92L263.27 98L263.1 87.04C263.06 84.52 261.94 82.9 259.63 82.93C257.33 82.97 255.96 84.56 256 87.15L256.17 98.11L251.15 98.18Z" />
				<path id="Layer" fill-rule="evenodd" class="shp0" d="M273.81 81.04C275.36 79.26 277.4 78.36 279.89 78.32C282.63 78.28 284.78 79.6 285.65 81.59L285.61 78.67L290.51 78.6L290.78 96.53C290.86 101.79 287.36 104.8 281.68 104.88C276.59 104.96 273.04 102.56 272.14 98.52L277.23 98.45C277.69 100.08 279.24 101.16 281.48 101.12C284.55 101.08 285.81 99.45 285.76 95.98L285.72 93.39C285.13 95.33 282.91 96.86 280.17 96.9C277.68 96.94 275.62 96.1 274.02 94.41C272.42 92.68 271.61 90.46 271.57 87.76C271.53 85.02 272.27 82.78 273.81 81.04ZM281.21 93.02C283.84 92.98 285.68 90.76 285.63 87.55C285.58 84.33 283.65 82.17 281.05 82.21C278.23 82.25 276.43 84.47 276.48 87.68C276.53 90.79 278.43 93.06 281.21 93.02Z" />
				<path id="Layer" fill-rule="evenodd" class="shp0" d="M296.81 80.95C298.57 78.99 300.83 78 303.57 77.96C306.5 77.92 308.79 78.8 310.39 80.64C312.03 82.44 312.87 84.76 312.91 87.65L312.93 88.85L299.09 89.06C299.32 92.02 301.18 94.03 304 93.99C306.09 93.96 307.46 93.1 308.17 91.41L312.71 91.34C312.3 93.25 311.3 94.8 309.74 95.99C308.18 97.18 306.29 97.79 304.09 97.82C301.13 97.87 298.74 96.96 296.98 95.12C295.24 93.28 294.32 90.92 294.28 88.04C294.24 85.23 295.08 82.88 296.81 80.95ZM308.08 85.46C307.72 83.01 306.08 81.47 303.63 81.51C301.25 81.54 299.59 83.21 299.19 85.59L308.08 85.46Z" />
				<path id="Layer" class="shp0" d="M321.41 97.13L314.09 78.24L319.14 78.17L323.88 91.46L328.22 78.03L333.24 77.95L326.53 97.05L321.41 97.13Z" />
				<path id="Layer" class="shp0" d="M336.2 77.91L341.22 77.84L341.5 96.83L336.49 96.9L336.2 77.91ZM336.05 70.46L341.14 70.39L341.21 75.21L336.12 75.28L336.05 70.46Z" />
				<path id="Layer" class="shp0" d="M347.63 90.31L347.5 81.76L344.46 81.8L344.4 77.79L347.44 77.74L347.36 72.74L352.38 72.66L352.46 77.67L357.03 77.6L357.09 81.61L352.52 81.68L352.64 90.08C352.67 91.84 353.52 92.7 355.21 92.67C356.05 92.66 356.75 92.54 357.29 92.32L357.35 96.37C356.51 96.71 355.34 96.87 353.84 96.9C349.78 96.96 347.7 94.76 347.63 90.31Z" />
				<path id="Layer" class="shp0" d="M360.46 103.26L360.4 99.1C360.95 99.31 361.65 99.41 362.49 99.39C364.28 99.37 365.15 98.44 365.74 96.64L365.85 96.38L358.64 77.57L363.77 77.5L368.36 90.8L372.41 77.37L377.53 77.29L371.05 96.38L370.8 97.04C370 99.39 369.07 101.09 368.02 102.09C367.01 103.09 365.48 103.62 363.43 103.65C362.41 103.67 361.42 103.54 360.46 103.26Z" />
				<path id="Layer" class="shp0" d="M298.83 47.59L344.62 46.9L344.7 52.07L298.91 52.76L298.83 47.59Z" />
				<path id="Layer" class="shp0" d="M168.63 83.51L214.41 82.82L214.49 87.99L168.7 88.67L168.63 83.51Z" />
				<path id="Layer" class="shp0" d="M89.18 150.78L31.17 118.89L29.85 52.83L86.54 18.66L144.56 50.55L145.88 116.61L89.18 150.78Z" />
				<path id="Layer" class="shp1" d="M103.48 112.11C103.73 109.2 103.5 106.36 102.67 103.57C101.65 100.17 99.83 97.25 97.38 94.7C96.52 93.8 95.68 92.89 94.77 92.04C94.38 91.67 93.83 91.46 93.37 91.15C91.93 90.16 90.53 89.12 89.06 88.17C87.09 86.89 85.05 85.72 83.1 84.42C80.57 82.72 78.04 81.02 75.63 79.16C74.12 77.99 72.72 76.63 71.45 75.2C68.72 72.14 66.96 68.56 66.19 64.52C65.47 60.74 65.6 56.96 66.18 53.17C66.32 52.31 66.48 51.45 66.67 50.6C67.04 48.94 68.54 47.95 70.16 48.29C71.75 48.62 72.73 50.17 72.39 51.84C71.9 54.22 71.6 56.62 71.64 59.05C71.72 63.46 73.05 67.47 75.79 70.93C76.89 72.31 78.17 73.58 79.54 74.69C81.43 76.23 83.46 77.59 85.47 78.98C86.47 79.68 87.54 80.28 88.57 80.93C90.22 81.96 91.88 82.97 93.5 84.04C96.58 86.06 99.53 88.23 102.09 90.91C105.76 94.76 108.13 99.26 109.03 104.53C109.5 107.2 109.57 109.89 109.47 112.59C109.42 114.08 108.51 115.27 107.22 115.56C105.88 115.86 104.46 115.28 103.92 114.07C103.65 113.47 103.62 112.77 103.48 112.11Z" />
				<path id="Layer" class="shp1" d="M83.44 90.45C82.52 91.21 83.28 90.61 82.43 91.34C79.67 93.7 78.19 96.07 76.21 99.16C74.38 102.02 73.43 105.11 73.66 108.52C73.82 110.85 74.47 113.07 75.57 115.12C76.51 116.89 77.65 118.56 78.73 120.25C79.25 121.06 79.63 121.87 79.37 122.87C79.06 124.05 78.31 124.79 77.13 125.06C76.01 125.32 74.98 125.01 74.3 124.11C71.3 120.2 68.78 116.03 67.66 111.15C66.56 106.36 67.27 101.82 69.81 97.6C70.56 96.34 71.64 94.8 72.14 94.01C72.3 93.91 73.83 91.27 75.23 89.93C76.58 88.64 76.37 88.73 77.78 87.52C77.95 87.38 78.32 87.27 78.48 87.36C80.13 88.36 81.75 89.39 83.44 90.45Z" />
				<path id="Layer" class="shp1" d="M92.45 76.74C94.75 74.71 94.42 75.06 96.58 73.04C98.24 71.48 99.65 69.7 100.71 67.67C102.88 63.54 102.66 59.43 100.7 55.31C99.5 52.8 97.87 50.6 96.06 48.51C95.07 47.36 94.85 46.17 95.51 44.97C96.34 43.48 98.58 42.75 99.96 44.21C103.84 48.31 106.97 52.86 108.23 58.47C109.24 62.99 108.23 67.16 105.82 71.05C104.51 73.16 102.93 75.08 101.11 76.77C99.23 78.51 99.89 77.93 97.99 79.66C97.63 79.99 97.35 80 96.93 79.72C95.68 78.87 94.39 78.07 93.12 77.24C92.86 77.08 92.64 76.88 92.45 76.74Z" />
				<path id="Layer" class="shp1" d="M104.67 62.01C102.37 60.57 100.2 59.13 97.93 57.79C96.19 56.76 94.26 55.96 92.12 55.47C87.77 54.47 83.73 55.31 79.9 57.51C77.56 58.85 75.58 60.48 73.74 62.22C72.73 63.18 71.58 63.55 70.31 63.23C68.74 62.83 67.74 61.22 69.01 59.91C72.58 56.23 76.69 53.05 82.09 51.15C86.44 49.63 90.68 49.73 94.82 50.96C97.08 51.62 99.16 52.53 101.06 53.66C103.02 54.83 104.93 56.05 106.87 57.24C107.24 57.47 107.29 57.68 107.06 58.05C106.38 59.16 105.75 60.29 105.09 61.41C104.95 61.64 104.78 61.85 104.67 62.01Z" />
				<path id="Layer" class="shp1" d="M102.93 71.54C100.95 70.15 99.06 68.77 97.1 67.47C95.6 66.48 93.93 65.69 92.09 65.2C88.35 64.19 84.91 64.92 81.66 66.93C79.68 68.15 78.01 69.65 76.46 71.26C75.61 72.15 74.63 72.47 73.54 72.16C72.19 71.76 71.31 70.23 72.38 69.02C75.38 65.61 78.85 62.68 83.44 60.99C87.14 59.62 90.77 59.78 94.34 61C96.28 61.66 98.07 62.54 99.72 63.64C101.41 64.77 103.06 65.95 104.74 67.09C105.07 67.31 105.11 67.51 104.92 67.86C104.35 68.89 103.83 69.94 103.28 70.99C103.17 71.2 103.03 71.39 102.93 71.54Z" />
				<path id="Layer" class="shp1" d="M72.92 104.01C75.13 105.53 77.22 107.05 79.41 108.47C81.09 109.56 82.95 110.41 85 110.95C89.16 112.05 93 111.24 96.63 109.02C98.83 107.67 100.7 106.02 102.43 104.24C103.39 103.26 104.48 102.9 105.69 103.25C107.2 103.68 108.18 105.36 106.98 106.7C103.63 110.45 99.75 113.68 94.63 115.56C90.5 117.07 86.45 116.91 82.48 115.58C80.31 114.85 78.31 113.89 76.48 112.69C74.6 111.45 72.76 110.16 70.89 108.91C70.53 108.66 70.48 108.44 70.69 108.07C71.33 106.93 71.92 105.77 72.53 104.62C72.65 104.39 72.81 104.17 72.92 104.01Z" />
				<path id="Layer" class="shp1" d="M74.43 93.49C76.4 95.04 76.94 94.96 78.87 96.4C80.36 97.5 81.99 98.38 83.78 98.94C87.41 100.08 90.68 99.32 93.72 97.17C95.57 95.85 97.11 94.23 98.54 92.48C99.32 91.52 100.24 91.18 101.3 91.54C102.62 91.99 103.52 93.67 102.55 94.99C99.8 98.68 96.59 101.84 92.26 103.64C88.76 105.1 85.26 104.89 81.79 103.51C79.9 102.76 78.14 101.78 76.52 100.56C74.84 99.3 74.54 99.61 72.87 98.34C72.55 98.09 72.51 97.87 72.67 97.5C73.18 96.37 73.64 95.23 74.12 94.09C74.22 93.87 74.35 93.66 74.43 93.49Z" />
				<path id="Layer" fill-rule="evenodd" class="shp0" d="M188.23 139.86C188.03 140.86 187.58 141.79 186.88 142.66C186.19 143.53 185.17 144.27 183.83 144.89C182.49 145.5 180.69 145.83 178.43 145.86C177.47 145.88 176.48 145.77 175.47 145.55C174.47 145.33 173.55 144.98 172.71 144.49C171.88 144.01 171.18 143.38 170.63 142.61C170.07 141.83 169.74 140.9 169.65 139.81L175.02 139.73C175.29 140.72 175.8 141.4 176.54 141.77C177.28 142.15 178.14 142.33 179.1 142.31C180.63 142.29 181.73 141.82 182.42 140.92C183.1 140.02 183.42 138.88 183.38 137.51L183.34 134.98L183.26 134.98C182.69 136.01 181.87 136.77 180.8 137.27C179.73 137.77 178.59 138.03 177.4 138.05C175.93 138.07 174.65 137.84 173.58 137.35C172.5 136.85 171.62 136.17 170.92 135.3C170.22 134.43 169.7 133.4 169.36 132.23C169.03 131.05 168.85 129.81 168.83 128.49C168.81 127.25 168.98 126.05 169.33 124.89C169.68 123.73 170.21 122.7 170.9 121.81C171.6 120.92 172.47 120.2 173.52 119.67C174.57 119.13 175.78 118.85 177.15 118.83C178.44 118.81 179.58 119.03 180.57 119.49C181.55 119.94 182.38 120.72 183.06 121.83L183.14 121.83L183.1 119.26L188.25 119.18L188.52 137.21C188.53 137.98 188.43 138.87 188.23 139.86ZM180.72 133.57C181.3 133.26 181.78 132.86 182.16 132.35C182.53 131.85 182.81 131.28 182.99 130.65C183.17 130.01 183.25 129.34 183.24 128.65C183.23 127.85 183.14 127.1 182.98 126.4C182.82 125.69 182.55 125.07 182.19 124.53C181.82 123.99 181.35 123.56 180.76 123.25C180.17 122.93 179.43 122.78 178.54 122.79C177.78 122.81 177.13 122.96 176.59 123.27C176.04 123.58 175.59 123.99 175.23 124.5C174.87 125.02 174.61 125.61 174.46 126.27C174.3 126.93 174.23 127.62 174.24 128.34C174.25 129.03 174.33 129.72 174.48 130.4C174.63 131.08 174.88 131.69 175.23 132.23C175.59 132.78 176.04 133.22 176.61 133.55C177.17 133.89 177.87 134.06 178.71 134.05C179.47 134.03 180.14 133.87 180.72 133.57Z" />
				<path id="Layer" class="shp0" d="M206.22 138.18L206.18 135.5L206.06 135.5C205.39 136.63 204.52 137.45 203.43 137.96C202.35 138.47 201.23 138.74 200.09 138.75C198.64 138.78 197.45 138.61 196.52 138.25C195.58 137.89 194.85 137.37 194.3 136.7C193.76 136.02 193.37 135.2 193.14 134.22C192.91 133.24 192.79 132.16 192.77 130.96L192.59 119.12L198 119.04L198.16 129.91C198.19 131.5 198.46 132.69 198.98 133.46C199.5 134.24 200.41 134.61 201.7 134.59C203.18 134.57 204.24 134.13 204.89 133.26C205.53 132.39 205.84 130.98 205.81 129.02L205.66 118.92L211.07 118.84L211.36 138.1L206.22 138.18Z" />
				<path id="Layer" class="shp0" d="M221.04 137.96L215.63 138.04L215.34 118.78L220.75 118.7L221.04 137.96ZM215.23 111.44L220.64 111.36L220.71 115.72L215.29 115.8L215.23 111.44Z" />
				<path id="Layer" fill-rule="evenodd" class="shp0" d="M239.26 135.22C238.64 136.28 237.82 137.04 236.8 137.51C235.77 137.99 234.62 138.24 233.32 138.25C231.85 138.28 230.55 138.02 229.42 137.48C228.29 136.93 227.36 136.19 226.62 135.24C225.88 134.3 225.32 133.21 224.93 131.97C224.55 130.74 224.34 129.45 224.32 128.11C224.3 126.82 224.47 125.56 224.82 124.35C225.17 123.14 225.7 122.07 226.41 121.14C227.12 120.21 228.02 119.46 229.1 118.89C230.19 118.31 231.45 118.01 232.9 117.99C234.07 117.97 235.18 118.2 236.25 118.67C237.31 119.14 238.15 119.84 238.77 120.77L238.85 120.77L238.7 111.09L244.11 111L244.52 137.6L239.37 137.68L239.34 135.22L239.26 135.22ZM238.89 125.71C238.72 124.98 238.45 124.34 238.08 123.78C237.7 123.23 237.22 122.78 236.63 122.44C236.04 122.11 235.3 121.94 234.41 121.96C233.52 121.97 232.77 122.15 232.17 122.51C231.56 122.87 231.08 123.34 230.72 123.91C230.36 124.49 230.1 125.14 229.95 125.88C229.8 126.61 229.72 127.38 229.74 128.17C229.75 128.92 229.85 129.66 230.04 130.41C230.23 131.15 230.52 131.81 230.92 132.39C231.33 132.96 231.83 133.43 232.43 133.78C233.03 134.13 233.76 134.3 234.59 134.29C235.48 134.27 236.22 134.09 236.82 133.73C237.41 133.38 237.88 132.9 238.22 132.31C238.57 131.72 238.81 131.06 238.96 130.31C239.1 129.56 239.16 128.79 239.15 128C239.14 127.2 239.05 126.44 238.89 125.71Z" />
				<path id="Layer" fill-rule="evenodd" class="shp0" d="M254.32 132.83C255.14 133.59 256.31 133.96 257.84 133.94C258.93 133.92 259.87 133.64 260.65 133.09C261.43 132.55 261.9 131.98 262.07 131.38L266.83 131.31C266.11 133.63 264.96 135.3 263.4 136.31C261.84 137.33 259.94 137.85 257.71 137.89C256.16 137.91 254.76 137.69 253.51 137.23C252.25 136.76 251.19 136.09 250.31 135.21C249.43 134.32 248.75 133.27 248.26 132.03C247.77 130.8 247.52 129.43 247.5 127.94C247.47 126.5 247.7 125.16 248.16 123.91C248.62 122.66 249.29 121.58 250.17 120.66C251.04 119.74 252.09 119.01 253.32 118.47C254.54 117.93 255.9 117.65 257.4 117.62C259.08 117.6 260.54 117.89 261.8 118.51C263.05 119.12 264.09 119.96 264.91 121.01C265.72 122.07 266.32 123.28 266.7 124.64C267.07 126 267.22 127.43 267.14 128.92L252.93 129.13C253.03 130.84 253.49 132.08 254.32 132.83ZM260.28 122.61C259.62 121.93 258.63 121.59 257.31 121.61C256.45 121.62 255.73 121.78 255.16 122.07C254.6 122.37 254.14 122.73 253.81 123.15C253.47 123.58 253.24 124.03 253.1 124.51C252.97 124.98 252.89 125.4 252.88 125.78L261.68 125.65C261.4 124.31 260.94 123.3 260.28 122.61Z" />
			</g>
		</g>
	</g>
</svg>