<?xml version="1.0" encoding="utf-8"?>
<!-- Generator: Adobe Illustrator 22.1.0, SVG Export Plug-In . SVG Version: 6.00 Build 0)  -->
<svg version="1.1" id="Layer_1" xmlns="http://www.w3.org/2000/svg" xmlns:xlink="http://www.w3.org/1999/xlink" x="0px" y="0px"
	 viewBox="0 0 212.7 51.4" style="enable-background:new 0 0 212.7 51.4;" xml:space="preserve">
<style type="text/css">
	.st0{fill:#5ECAE7;}
	.st1{fill:#95C83F;}
	.st2{fill:#919395;}
	.st3{fill:#D5DD26;}
	.st4{fill:#96C93D;}
	.st5{fill:url(#SVGID_1_);}
	.st6{fill:url(#SVGID_2_);}
	.st7{fill:url(#SVGID_3_);}
	.st8{fill:url(#SVGID_4_);}
	.st9{fill:url(#SVGID_5_);}
	.st10{fill:url(#SVGID_6_);}
</style>
<g>
	<path class="st0" d="M33.8,28.4h3.3v16.1h-3.3V28.4z"/>
	<path class="st0" d="M39.8,28.4h3.5v3h-3.5V28.4z M39.9,32.7h3.3v11.8h-3.3V32.7z"/>
	<path class="st0" d="M46.4,35.5H45v-2.8h1.4V32c0-1.3,0.3-2.2,0.9-2.9c0.6-0.6,1.5-0.9,2.7-0.9c0.5,0,1,0,1.4,0.1
		c0.4,0.1,0.7,0.1,1,0.2v2.8c-0.2-0.1-0.5-0.2-0.7-0.2c-0.2-0.1-0.5-0.1-0.8-0.1c-0.8,0-1.2,0.4-1.2,1.3v0.5h2.7v2.7h-2.7v8.9h-3.3
		V35.5z"/>
	<path class="st0" d="M59.3,44.7c-0.9,0-1.7-0.1-2.5-0.4c-0.8-0.3-1.4-0.7-2-1.3s-1-1.2-1.3-1.9c-0.3-0.7-0.5-1.6-0.5-2.5v0
		c0-0.8,0.1-1.6,0.4-2.4c0.3-0.7,0.7-1.4,1.2-2c0.5-0.6,1.1-1,1.8-1.3c0.7-0.3,1.5-0.5,2.4-0.5c1,0,1.8,0.2,2.6,0.5
		c0.7,0.4,1.3,0.8,1.8,1.4c0.5,0.6,0.8,1.3,1.1,2c0.2,0.8,0.3,1.6,0.3,2.4c0,0.1,0,0.3,0,0.4c0,0.1,0,0.3,0,0.5h-8.2
		c0.2,0.8,0.5,1.3,1,1.7c0.5,0.4,1.1,0.6,1.9,0.6c0.6,0,1.1-0.1,1.5-0.3c0.4-0.2,0.9-0.5,1.4-0.9l1.9,1.7c-0.6,0.7-1.2,1.2-2,1.6
		C61.3,44.5,60.4,44.7,59.3,44.7z M61.4,37.7c-0.1-0.7-0.4-1.4-0.8-1.8c-0.4-0.5-1-0.7-1.7-0.7c-0.7,0-1.3,0.2-1.7,0.7
		c-0.4,0.5-0.7,1.1-0.8,1.8H61.4z"/>
	<path class="st0" d="M70.2,44.7c-0.8,0-1.7-0.1-2.6-0.4c-0.9-0.3-1.7-0.7-2.5-1.4l1.4-2.2c0.6,0.5,1.3,0.8,1.9,1.1
		c0.6,0.2,1.2,0.4,1.8,0.4c0.5,0,0.8-0.1,1.1-0.2c0.2-0.2,0.3-0.4,0.3-0.6v0c0-0.2-0.1-0.3-0.2-0.5c-0.1-0.1-0.3-0.2-0.5-0.3
		c-0.2-0.1-0.5-0.2-0.8-0.3c-0.3-0.1-0.6-0.2-0.9-0.3c-0.4-0.1-0.8-0.3-1.2-0.4c-0.4-0.2-0.8-0.4-1.1-0.7c-0.3-0.3-0.6-0.6-0.8-1
		c-0.2-0.4-0.3-0.9-0.3-1.5v0c0-0.6,0.1-1.1,0.3-1.6c0.2-0.5,0.5-0.9,0.9-1.2c0.4-0.3,0.8-0.6,1.4-0.7c0.5-0.2,1.1-0.2,1.7-0.2
		c0.7,0,1.5,0.1,2.3,0.4c0.8,0.2,1.5,0.6,2.1,1l-1.3,2.3c-0.6-0.3-1.2-0.6-1.7-0.8c-0.6-0.2-1-0.3-1.5-0.3c-0.4,0-0.7,0.1-0.9,0.2
		c-0.2,0.2-0.3,0.3-0.3,0.6v0c0,0.2,0.1,0.3,0.2,0.4c0.1,0.1,0.3,0.2,0.5,0.4c0.2,0.1,0.5,0.2,0.8,0.3c0.3,0.1,0.6,0.2,0.9,0.3
		c0.4,0.1,0.8,0.3,1.3,0.5c0.4,0.2,0.8,0.4,1.1,0.7c0.3,0.3,0.6,0.6,0.8,1c0.2,0.4,0.3,0.8,0.3,1.4v0c0,0.7-0.1,1.2-0.3,1.7
		c-0.2,0.5-0.5,0.9-1,1.2c-0.4,0.3-0.9,0.5-1.4,0.7C71.4,44.6,70.8,44.7,70.2,44.7z"/>
	<path class="st0" d="M80.6,44.7c-0.5,0-1-0.1-1.4-0.2c-0.4-0.1-0.8-0.3-1.1-0.6c-0.3-0.3-0.5-0.6-0.7-1.1c-0.2-0.4-0.3-1-0.3-1.7
		v-5.6h-1.4v-2.9h1.4v-3h3.3v3h2.8v2.9h-2.8v5.1c0,0.8,0.4,1.1,1.1,1.1c0.6,0,1.1-0.1,1.7-0.4V44c-0.4,0.2-0.7,0.4-1.2,0.5
		S81.1,44.7,80.6,44.7z"/>
	<path class="st0" d="M88,48.1c-0.6,0-1.2-0.1-1.6-0.2c-0.5-0.1-0.9-0.3-1.3-0.6l1.1-2.4c0.2,0.1,0.5,0.2,0.7,0.3
		c0.3,0.1,0.5,0.1,0.7,0.1c0.3,0,0.5-0.1,0.7-0.2c0.2-0.1,0.3-0.3,0.5-0.6l-4.6-11.8h3.5l2.7,8l2.6-8h3.5l-4.5,12.1
		c-0.2,0.6-0.5,1.1-0.7,1.5c-0.2,0.4-0.5,0.8-0.8,1c-0.3,0.3-0.6,0.5-1,0.6C88.9,48,88.5,48.1,88,48.1z"/>
	<path class="st0" d="M97.4,28.4h3.3v16.1h-3.3V28.4z"/>
	<path class="st0" d="M108.4,44.7c-0.9,0-1.7-0.1-2.5-0.4c-0.8-0.3-1.4-0.7-2-1.3s-1-1.2-1.3-1.9c-0.3-0.7-0.5-1.6-0.5-2.5v0
		c0-0.8,0.1-1.6,0.4-2.4c0.3-0.7,0.7-1.4,1.2-2c0.5-0.6,1.1-1,1.8-1.3c0.7-0.3,1.5-0.5,2.4-0.5c1,0,1.8,0.2,2.6,0.5
		c0.7,0.4,1.3,0.8,1.8,1.4c0.5,0.6,0.8,1.3,1.1,2c0.2,0.8,0.3,1.6,0.3,2.4c0,0.1,0,0.3,0,0.4c0,0.1,0,0.3,0,0.5h-8.2
		c0.2,0.8,0.5,1.3,1,1.7c0.5,0.4,1.1,0.6,1.9,0.6c0.6,0,1.1-0.1,1.5-0.3c0.4-0.2,0.9-0.5,1.4-0.9l1.9,1.7c-0.6,0.7-1.2,1.2-2,1.6
		C110.4,44.5,109.5,44.7,108.4,44.7z M110.5,37.7c-0.1-0.7-0.4-1.4-0.8-1.8c-0.4-0.5-1-0.7-1.7-0.7c-0.7,0-1.3,0.2-1.7,0.7
		c-0.4,0.5-0.7,1.1-0.8,1.8H110.5z"/>
</g>
<g>
	<path class="st1" d="M118.6,32.6h3.3v1.7c0.2-0.3,0.4-0.5,0.6-0.7c0.2-0.2,0.5-0.4,0.8-0.6c0.3-0.2,0.6-0.3,0.9-0.4
		c0.3-0.1,0.7-0.2,1.2-0.2c0.8,0,1.4,0.2,2,0.5c0.6,0.3,1,0.8,1.3,1.4c0.5-0.6,1.1-1.1,1.7-1.4c0.6-0.3,1.3-0.5,2.2-0.5
		c1.2,0,2.2,0.4,2.9,1.1c0.7,0.7,1.1,1.8,1.1,3.2v7.7h-3.3v-6.6c0-0.8-0.2-1.4-0.5-1.8c-0.3-0.4-0.8-0.6-1.5-0.6
		c-0.6,0-1.1,0.2-1.5,0.6c-0.4,0.4-0.5,1-0.5,1.8v6.6H126v-6.6c0-0.8-0.2-1.4-0.5-1.8c-0.3-0.4-0.8-0.6-1.5-0.6
		c-0.6,0-1.1,0.2-1.5,0.6c-0.4,0.4-0.5,1-0.5,1.8v6.6h-3.3V32.6z"/>
	<path class="st1" d="M144,44.6c-0.9,0-1.7-0.1-2.5-0.4c-0.8-0.3-1.4-0.7-2-1.3c-0.5-0.5-1-1.2-1.3-1.9c-0.3-0.7-0.5-1.6-0.5-2.5v0
		c0-0.8,0.1-1.6,0.4-2.4c0.3-0.7,0.7-1.4,1.2-2c0.5-0.6,1.1-1,1.8-1.3c0.7-0.3,1.5-0.5,2.4-0.5c1,0,1.8,0.2,2.6,0.5
		c0.7,0.4,1.3,0.8,1.8,1.4c0.5,0.6,0.8,1.3,1.1,2c0.2,0.8,0.3,1.6,0.3,2.4c0,0.1,0,0.3,0,0.4c0,0.1,0,0.3,0,0.5h-8.2
		c0.2,0.8,0.5,1.3,1,1.7c0.5,0.4,1.1,0.6,1.9,0.6c0.6,0,1.1-0.1,1.5-0.3c0.4-0.2,0.9-0.5,1.4-0.9l1.9,1.7c-0.6,0.7-1.2,1.2-2,1.6
		C146,44.4,145.1,44.6,144,44.6z M146.2,37.5c-0.1-0.7-0.4-1.4-0.8-1.8s-1-0.7-1.7-0.7c-0.7,0-1.3,0.2-1.7,0.7
		c-0.4,0.5-0.7,1.1-0.8,1.8H146.2z"/>
	<path class="st1" d="M155.7,44.6c-0.7,0-1.4-0.1-2-0.4s-1.2-0.7-1.7-1.2c-0.5-0.5-0.9-1.2-1.2-1.9c-0.3-0.8-0.5-1.6-0.5-2.6v0
		c0-1,0.2-1.9,0.5-2.6c0.3-0.8,0.7-1.4,1.2-1.9c0.5-0.5,1.1-0.9,1.7-1.2s1.3-0.4,2-0.4c0.9,0,1.6,0.2,2.2,0.5
		c0.6,0.4,1.1,0.8,1.5,1.2v-5.8h3.3v16.1h-3.3v-1.7c-0.4,0.6-0.9,1-1.5,1.4C157.3,44.4,156.5,44.6,155.7,44.6z M156.5,41.7
		c0.4,0,0.8-0.1,1.1-0.2c0.3-0.2,0.6-0.4,0.9-0.7c0.3-0.3,0.5-0.6,0.6-1c0.2-0.4,0.2-0.8,0.2-1.3v0c0-0.5-0.1-0.9-0.2-1.3
		c-0.2-0.4-0.4-0.7-0.6-1c-0.3-0.3-0.6-0.5-0.9-0.7c-0.3-0.2-0.7-0.2-1.1-0.2c-0.4,0-0.8,0.1-1.1,0.2c-0.3,0.2-0.6,0.4-0.9,0.7
		c-0.3,0.3-0.5,0.6-0.6,1c-0.2,0.4-0.2,0.8-0.2,1.3v0c0,0.5,0.1,0.9,0.2,1.3c0.2,0.4,0.4,0.7,0.6,1c0.3,0.3,0.6,0.5,0.9,0.7
		C155.7,41.7,156.1,41.7,156.5,41.7z"/>
	<path class="st1" d="M164.6,28.3h3.5v3h-3.5V28.3z M164.7,32.6h3.3v11.8h-3.3V32.6z"/>
	<path class="st1" d="M175.7,44.6c-0.9,0-1.7-0.2-2.5-0.5c-0.8-0.3-1.4-0.8-1.9-1.3c-0.5-0.5-1-1.2-1.3-1.9
		c-0.3-0.7-0.5-1.5-0.5-2.4v0c0-0.8,0.2-1.6,0.5-2.4c0.3-0.7,0.7-1.4,1.3-2c0.5-0.6,1.2-1,1.9-1.3c0.8-0.3,1.6-0.5,2.5-0.5
		c1.1,0,2,0.2,2.8,0.5c0.7,0.4,1.4,0.8,1.9,1.5l-2,2.2c-0.4-0.4-0.8-0.7-1.2-0.9c-0.4-0.2-0.9-0.4-1.5-0.4c-0.4,0-0.8,0.1-1.2,0.3
		c-0.3,0.2-0.6,0.4-0.9,0.7c-0.3,0.3-0.5,0.6-0.6,1c-0.1,0.4-0.2,0.8-0.2,1.2v0c0,0.5,0.1,0.9,0.2,1.3c0.1,0.4,0.3,0.7,0.6,1
		c0.3,0.3,0.6,0.5,0.9,0.7c0.4,0.2,0.8,0.3,1.2,0.3c0.6,0,1-0.1,1.5-0.3c0.4-0.2,0.8-0.5,1.2-0.9l2,2c-0.6,0.6-1.2,1.1-2,1.6
		C177.8,44.4,176.8,44.6,175.7,44.6z"/>
	<path class="st1" d="M182.2,28.3h3.5v3h-3.5V28.3z M182.3,32.6h3.3v11.8h-3.3V32.6z"/>
	<path class="st1" d="M188.5,32.6h3.3v1.7c0.2-0.3,0.4-0.5,0.6-0.7c0.2-0.2,0.5-0.4,0.8-0.6c0.3-0.2,0.6-0.3,0.9-0.4
		c0.3-0.1,0.7-0.2,1.1-0.2c1.3,0,2.3,0.4,3,1.2c0.7,0.8,1,1.8,1,3.2v7.6H196v-6.6c0-0.8-0.2-1.4-0.5-1.8c-0.4-0.4-0.9-0.6-1.5-0.6
		c-0.6,0-1.2,0.2-1.5,0.6c-0.4,0.4-0.6,1-0.6,1.8v6.6h-3.3V32.6z"/>
	<path class="st1" d="M207.3,44.6c-0.9,0-1.7-0.1-2.5-0.4c-0.8-0.3-1.4-0.7-2-1.3c-0.5-0.5-1-1.2-1.3-1.9c-0.3-0.7-0.5-1.6-0.5-2.5
		v0c0-0.8,0.1-1.6,0.4-2.4c0.3-0.7,0.7-1.4,1.2-2c0.5-0.6,1.1-1,1.8-1.3c0.7-0.3,1.5-0.5,2.4-0.5c1,0,1.8,0.2,2.6,0.5
		c0.7,0.4,1.3,0.8,1.8,1.4c0.5,0.6,0.8,1.3,1.1,2c0.2,0.8,0.3,1.6,0.3,2.4c0,0.1,0,0.3,0,0.4c0,0.1,0,0.3,0,0.5h-8.2
		c0.2,0.8,0.5,1.3,1,1.7c0.5,0.4,1.1,0.6,1.9,0.6c0.6,0,1.1-0.1,1.5-0.3c0.4-0.2,0.9-0.5,1.4-0.9l1.9,1.7c-0.6,0.7-1.2,1.2-2,1.6
		C209.3,44.4,208.4,44.6,207.3,44.6z M209.4,37.5c-0.1-0.7-0.4-1.4-0.8-1.8s-1-0.7-1.7-0.7c-0.7,0-1.3,0.2-1.7,0.7
		c-0.4,0.5-0.7,1.1-0.8,1.8H209.4z"/>
</g>
<path class="st2" d="M43.5,17.1c0.4,0.5,0.6,1.2,0.6,2c0,1.1-0.4,1.9-1.2,2.5s-2,0.9-3.5,0.9h-5.9V10.1h5.5c1.4,0,2.5,0.3,3.3,0.8
	c0.8,0.6,1.2,1.3,1.2,2.3c0,0.6-0.1,1.2-0.4,1.7s-0.7,0.8-1.2,1.1C42.6,16.3,43.1,16.6,43.5,17.1z M35.3,11.6v3.9h3.6
	c0.9,0,1.6-0.2,2.1-0.5c0.5-0.3,0.7-0.8,0.7-1.5s-0.2-1.1-0.7-1.5c-0.5-0.3-1.2-0.5-2.1-0.5H35.3z M41.6,20.5
	c0.5-0.3,0.8-0.8,0.8-1.5c0-1.4-1-2.1-3-2.1h-4V21h4C40.4,21,41.1,20.8,41.6,20.5z"/>
<path class="st2" d="M48.9,13.5c0.6-0.3,1.3-0.4,2.1-0.4v1.6c-0.1,0-0.2,0-0.4,0c-0.9,0-1.6,0.3-2.2,0.8c-0.5,0.5-0.8,1.3-0.8,2.3
	v4.6h-1.7v-9.3h1.6v1.6C47.9,14.1,48.3,13.7,48.9,13.5z"/>
<path class="st2" d="M52.7,11c-0.2-0.2-0.3-0.5-0.3-0.8s0.1-0.6,0.3-0.8c0.2-0.2,0.5-0.3,0.8-0.3c0.3,0,0.6,0.1,0.8,0.3
	c0.2,0.2,0.3,0.5,0.3,0.8c0,0.3-0.1,0.6-0.3,0.8c-0.2,0.2-0.5,0.3-0.8,0.3C53.2,11.3,52.9,11.2,52.7,11z M52.6,13.1h1.7v9.3h-1.7
	V13.1z"/>
<path class="st2" d="M62.6,21.9c-0.2,0.2-0.6,0.4-0.9,0.5s-0.7,0.2-1.1,0.2c-0.9,0-1.7-0.3-2.2-0.8c-0.5-0.5-0.8-1.2-0.8-2.2v-5.1
	H56v-1.4h1.6v-2h1.7v2h2.7v1.4h-2.7v5c0,0.5,0.1,0.9,0.4,1.2s0.6,0.4,1.1,0.4c0.5,0,1-0.1,1.3-0.4L62.6,21.9z"/>
<path class="st2" d="M64.1,11c-0.2-0.2-0.3-0.5-0.3-0.8s0.1-0.6,0.3-0.8c0.2-0.2,0.5-0.3,0.8-0.3c0.3,0,0.6,0.1,0.8,0.3
	c0.2,0.2,0.3,0.5,0.3,0.8c0,0.3-0.1,0.6-0.3,0.8c-0.2,0.2-0.5,0.3-0.8,0.3C64.6,11.3,64.3,11.2,64.1,11z M64.1,13.1h1.7v9.3h-1.7
	V13.1z"/>
<path class="st2" d="M69.1,22.2c-0.7-0.2-1.3-0.5-1.7-0.8l0.7-1.3c0.4,0.3,0.9,0.5,1.5,0.7c0.6,0.2,1.2,0.3,1.8,0.3
	c1.5,0,2.2-0.4,2.2-1.3c0-0.3-0.1-0.5-0.3-0.7s-0.4-0.3-0.7-0.4s-0.7-0.2-1.3-0.3c-0.8-0.1-1.4-0.3-1.8-0.4s-0.9-0.4-1.2-0.8
	c-0.3-0.4-0.5-0.9-0.5-1.5c0-0.8,0.4-1.5,1.1-2s1.6-0.8,2.8-0.8c0.6,0,1.2,0.1,1.9,0.2s1.1,0.4,1.5,0.6l-0.7,1.3
	c-0.8-0.5-1.7-0.7-2.7-0.7c-0.7,0-1.3,0.1-1.6,0.4c-0.4,0.2-0.6,0.5-0.6,0.9c0,0.3,0.1,0.5,0.3,0.7s0.5,0.3,0.8,0.4
	c0.3,0.1,0.7,0.2,1.3,0.3c0.8,0.1,1.4,0.3,1.8,0.4c0.5,0.1,0.9,0.4,1.2,0.7s0.5,0.8,0.5,1.5c0,0.8-0.4,1.5-1.1,2s-1.7,0.7-2.9,0.7
	C70.6,22.5,69.8,22.4,69.1,22.2z"/>
<path class="st2" d="M84.8,14.1c0.7,0.7,1,1.7,1,3v5.4h-1.7v-5.2c0-0.9-0.2-1.6-0.7-2c-0.4-0.5-1.1-0.7-1.9-0.7
	c-0.9,0-1.6,0.3-2.2,0.8c-0.5,0.5-0.8,1.3-0.8,2.3v4.8H77v-13h1.7v5c0.4-0.4,0.8-0.8,1.4-1s1.2-0.4,1.9-0.4
	C83.1,13,84.1,13.4,84.8,14.1z"/>
<path class="st2" d="M94.4,22.1c-0.9-0.3-1.5-0.7-2-1.1l0.7-1.4c0.5,0.4,1.1,0.8,1.8,1c0.7,0.3,1.5,0.4,2.3,0.4c1,0,1.8-0.2,2.3-0.5
	c0.5-0.3,0.8-0.8,0.8-1.4c0-0.4-0.1-0.8-0.4-1c-0.3-0.3-0.6-0.5-1-0.6s-1-0.3-1.7-0.5c-0.9-0.2-1.7-0.4-2.2-0.7
	c-0.6-0.2-1.1-0.6-1.5-1c-0.4-0.5-0.6-1.1-0.6-1.9c0-0.7,0.2-1.2,0.5-1.8c0.3-0.5,0.9-0.9,1.6-1.3c0.7-0.3,1.6-0.5,2.6-0.5
	c0.7,0,1.4,0.1,2.1,0.3s1.3,0.5,1.8,0.8l-0.6,1.4c-0.5-0.3-1.1-0.6-1.7-0.7s-1.2-0.3-1.7-0.3c-1,0-1.7,0.2-2.2,0.5
	c-0.5,0.4-0.7,0.8-0.7,1.4c0,0.4,0.1,0.8,0.4,1s0.6,0.5,1,0.6s1,0.3,1.7,0.5c0.9,0.2,1.7,0.4,2.2,0.7c0.6,0.2,1,0.6,1.5,1
	s0.6,1.1,0.6,1.8c0,0.6-0.2,1.2-0.5,1.8s-0.9,1-1.6,1.3c-0.7,0.3-1.6,0.5-2.6,0.5C96.2,22.6,95.3,22.4,94.4,22.1z"/>
<path class="st2" d="M105.3,21.9c-0.7-0.4-1.3-1-1.7-1.7c-0.4-0.7-0.6-1.5-0.6-2.5s0.2-1.7,0.6-2.5c0.4-0.7,1-1.3,1.7-1.7
	c0.7-0.4,1.6-0.6,2.5-0.6s1.8,0.2,2.5,0.6c0.7,0.4,1.3,1,1.7,1.7c0.4,0.7,0.6,1.5,0.6,2.5s-0.2,1.7-0.6,2.5s-1,1.3-1.7,1.7
	c-0.7,0.4-1.6,0.6-2.5,0.6S106,22.3,105.3,21.9z M109.4,20.6c0.5-0.3,0.8-0.7,1.1-1.2s0.4-1.1,0.4-1.7c0-0.6-0.1-1.2-0.4-1.7
	c-0.3-0.5-0.6-0.9-1.1-1.2s-1-0.4-1.6-0.4s-1.1,0.1-1.6,0.4s-0.8,0.7-1.1,1.2c-0.3,0.5-0.4,1.1-0.4,1.7c0,0.6,0.1,1.2,0.4,1.7
	c0.3,0.5,0.7,0.9,1.1,1.2s1,0.4,1.6,0.4S108.9,20.9,109.4,20.6z"/>
<path class="st2" d="M116.2,21.9c-0.7-0.4-1.3-1-1.7-1.7s-0.6-1.5-0.6-2.5s0.2-1.7,0.6-2.5c0.4-0.7,1-1.3,1.7-1.7s1.6-0.6,2.5-0.6
	c0.8,0,1.6,0.2,2.3,0.5s1.2,0.8,1.5,1.5l-1.3,0.8c-0.3-0.4-0.7-0.8-1.1-1c-0.4-0.2-0.9-0.3-1.4-0.3c-0.6,0-1.2,0.1-1.6,0.4
	s-0.9,0.7-1.1,1.2c-0.3,0.5-0.4,1.1-0.4,1.7c0,0.7,0.1,1.2,0.4,1.7s0.7,0.9,1.1,1.2s1,0.4,1.6,0.4c0.5,0,1-0.1,1.4-0.3
	c0.4-0.2,0.8-0.6,1.1-1l1.3,0.8c-0.4,0.6-0.9,1.1-1.5,1.5s-1.4,0.5-2.3,0.5C117.8,22.5,117,22.3,116.2,21.9z"/>
<path class="st2" d="M124.1,11c-0.2-0.2-0.3-0.5-0.3-0.8s0.1-0.6,0.3-0.8s0.5-0.3,0.8-0.3s0.6,0.1,0.8,0.3s0.3,0.5,0.3,0.8
	c0,0.3-0.1,0.6-0.3,0.8s-0.5,0.3-0.8,0.3S124.3,11.2,124.1,11z M124,13.1h1.7v9.3H124V13.1z"/>
<path class="st2" d="M136.8,18.3h-7.6c0.1,0.8,0.5,1.5,1.1,2s1.4,0.7,2.3,0.7c1.1,0,2-0.4,2.7-1.1l0.9,1.1c-0.4,0.5-0.9,0.9-1.6,1.1
	s-1.3,0.4-2.1,0.4c-1,0-1.9-0.2-2.6-0.6s-1.4-1-1.8-1.7s-0.6-1.5-0.6-2.5c0-0.9,0.2-1.7,0.6-2.4c0.4-0.7,1-1.3,1.7-1.7
	s1.5-0.6,2.4-0.6c0.9,0,1.7,0.2,2.4,0.6s1.2,1,1.6,1.7c0.4,0.7,0.6,1.6,0.6,2.5C136.8,18,136.8,18.1,136.8,18.3z M130.2,15.2
	c-0.5,0.5-0.9,1.1-1,1.9h6c-0.1-0.8-0.4-1.4-1-1.9c-0.5-0.5-1.2-0.7-2-0.7S130.7,14.7,130.2,15.2z"/>
<path class="st2" d="M144.3,21.9c-0.2,0.2-0.6,0.4-0.9,0.5c-0.4,0.1-0.7,0.2-1.1,0.2c-0.9,0-1.7-0.3-2.2-0.8s-0.8-1.2-0.8-2.2v-5.1
	h-1.6v-1.4h1.6v-2h1.7v2h2.7v1.4H141v5c0,0.5,0.1,0.9,0.4,1.2s0.6,0.4,1.1,0.4c0.5,0,1-0.1,1.3-0.4L144.3,21.9z"/>
<path class="st2" d="M154.9,13.1l-4.5,10.2c-0.4,0.9-0.9,1.6-1.4,2s-1.2,0.6-1.9,0.6c-0.5,0-0.9-0.1-1.3-0.2s-0.8-0.4-1.1-0.6
	l0.7-1.3c0.5,0.5,1,0.7,1.7,0.7c0.4,0,0.8-0.1,1-0.3s0.5-0.6,0.7-1.1l0.3-0.7l-4.1-9.3h1.8l3.3,7.5l3.2-7.5H154.9z"/>
<path class="st2" d="M161.7,21.9c-0.7-0.4-1.3-1-1.7-1.7s-0.6-1.5-0.6-2.5s0.2-1.7,0.6-2.5c0.4-0.7,1-1.3,1.7-1.7s1.6-0.6,2.5-0.6
	c0.9,0,1.8,0.2,2.5,0.6s1.3,1,1.7,1.7c0.4,0.7,0.6,1.5,0.6,2.5s-0.2,1.7-0.6,2.5s-1,1.3-1.7,1.7s-1.6,0.6-2.5,0.6
	C163.3,22.5,162.5,22.3,161.7,21.9z M165.8,20.6c0.5-0.3,0.8-0.7,1.1-1.2s0.4-1.1,0.4-1.7c0-0.6-0.1-1.2-0.4-1.7
	c-0.3-0.5-0.6-0.9-1.1-1.2c-0.5-0.3-1-0.4-1.6-0.4s-1.1,0.1-1.6,0.4s-0.8,0.7-1.1,1.2c-0.3,0.5-0.4,1.1-0.4,1.7
	c0,0.6,0.1,1.2,0.4,1.7s0.7,0.9,1.1,1.2s1,0.4,1.6,0.4S165.4,20.9,165.8,20.6z"/>
<path class="st2" d="M173.1,12.3v0.8h2.7v1.4h-2.7v7.9h-1.7v-7.9h-1.6v-1.4h1.6v-0.8c0-0.9,0.3-1.7,0.8-2.2s1.3-0.8,2.3-0.8
	c0.4,0,0.7,0,1.1,0.1c0.3,0.1,0.6,0.2,0.8,0.4l-0.5,1.3c-0.4-0.3-0.8-0.4-1.3-0.4C173.6,10.7,173.1,11.2,173.1,12.3z"/>
<g>
	<g>
		<g>
			<path class="st3" d="M8.7,25.7c0,1.4,1.1,2.5,2.5,2.5c1.4,0,2.5-1.1,2.5-2.5c0-1.4-1.1-2.5-2.5-2.5C9.8,23.2,8.7,24.3,8.7,25.7z"
				/>
		</g>
		<g>
			<path class="st0" d="M8.7,48.9c0,1.4,1.1,2.5,2.5,2.5c1.4,0,2.5-1.1,2.5-2.5c0-1.4-1.1-2.5-2.5-2.5C9.9,46.3,8.7,47.5,8.7,48.9z"
				/>
		</g>
		<g>
			<path class="st4" d="M8.7,2.5c0,1.4,1.1,2.5,2.5,2.5c1.4,0,2.5-1.1,2.5-2.5c0-1.4-1.1-2.5-2.5-2.5C9.9,0,8.7,1.1,8.7,2.5z"/>
		</g>
		
			<linearGradient id="SVGID_1_" gradientUnits="userSpaceOnUse" x1="461.8409" y1="210.1404" x2="479.3362" y2="210.1404" gradientTransform="matrix(1 0 0 1 -459.3029 -178.9325)">
			<stop  offset="0.1408" style="stop-color:#D8C429"/>
			<stop  offset="0.8719" style="stop-color:#5ECAE7"/>
		</linearGradient>
		<path class="st5" d="M17.5,28.7c-1.2,0-2.3,0.9-2.5,2.1H7.6v0.5c0-1.4-1.1-2.5-2.5-2.5c-1.4,0-2.5,1.1-2.5,2.5s1.1,2.5,2.5,2.5
			c1.4,0,2.5-1.1,2.5-2.5v0.5H15c0.2,1.2,1.3,2.1,2.5,2.1c1.4,0,2.5-1.1,2.5-2.5S18.9,28.7,17.5,28.7z"/>
		
			<linearGradient id="SVGID_2_" gradientUnits="userSpaceOnUse" x1="479.2622" y1="198.987" x2="461.8409" y2="198.987" gradientTransform="matrix(1 0 0 1 -459.3029 -178.9325)">
			<stop  offset="0.1529" style="stop-color:#D3DD2E"/>
			<stop  offset="0.5621" style="stop-color:#5ABE96"/>
			<stop  offset="0.873" style="stop-color:#03A8E1"/>
		</linearGradient>
		<path class="st6" d="M17.4,17.5c-1.2,0-2.3,0.9-2.5,2.1H7.6v0.5c0-1.4-1.1-2.5-2.5-2.5c-1.4,0-2.5,1.1-2.5,2.5
			c0,1.4,1.1,2.5,2.5,2.5c1.4,0,2.5-1.1,2.5-2.5v0.5h7.3c0.2,1.2,1.3,2.1,2.5,2.1c1.4,0,2.5-1.1,2.5-2.5
			C20,18.7,18.8,17.5,17.4,17.5z"/>
		
			<linearGradient id="SVGID_3_" gradientUnits="userSpaceOnUse" x1="479.2622" y1="186.5959" x2="461.8409" y2="186.5959" gradientTransform="matrix(1 0 0 1 -459.3029 -178.9325)">
			<stop  offset="0.2009" style="stop-color:#96C93D"/>
			<stop  offset="0.4008" style="stop-color:#70AF64"/>
			<stop  offset="0.8631" style="stop-color:#1B75BA"/>
		</linearGradient>
		<path class="st7" d="M17.4,5.1c-1.2,0-2.3,0.9-2.5,2.1H7.6C7.3,6,6.3,5.1,5.1,5.1c-1.4,0-2.5,1.1-2.5,2.5c0,1.4,1.1,2.5,2.5,2.5
			c1.2,0,2.3-0.9,2.5-2.1h7.4c0.2,1.2,1.3,2.1,2.5,2.1c1.4,0,2.5-1.1,2.5-2.5C20,6.3,18.8,5.1,17.4,5.1z"/>
		
			<linearGradient id="SVGID_4_" gradientUnits="userSpaceOnUse" x1="461.8409" y1="222.6581" x2="479.3362" y2="222.6581" gradientTransform="matrix(1 0 0 1 -459.3029 -178.9325)">
			<stop  offset="0.1433" style="stop-color:#FFC018"/>
			<stop  offset="0.8704" style="stop-color:#5ECAE7"/>
		</linearGradient>
		<path class="st8" d="M17.5,41.2c-1.2,0-2.3,0.9-2.5,2.1H7.6c-0.2-1.2-1.3-2.1-2.5-2.1c-1.4,0-2.5,1.1-2.5,2.5
			c0,1.4,1.1,2.5,2.5,2.5c1.2,0,2.3-0.9,2.5-2.1H15c0.2,1.2,1.3,2.1,2.5,2.1c1.4,0,2.5-1.1,2.5-2.5C20,42.3,18.9,41.2,17.5,41.2z"/>
		
			<linearGradient id="SVGID_5_" gradientUnits="userSpaceOnUse" x1="481.8003" y1="192.7914" x2="459.3029" y2="192.7914" gradientTransform="matrix(1 0 0 1 -459.3029 -178.9325)">
			<stop  offset="0.1701" style="stop-color:#96C93D"/>
			<stop  offset="0.4356" style="stop-color:#61B075"/>
			<stop  offset="0.8628" style="stop-color:#0E8ACB"/>
		</linearGradient>
		<path class="st9" d="M20,11.3c-1.2,0-2.3,0.9-2.5,2.1H5.1v0.5c0-1.4-1.1-2.5-2.5-2.5c-1.4,0-2.5,1.1-2.5,2.5
			c0,1.4,1.1,2.5,2.5,2.5c1.4,0,2.5-1.1,2.5-2.5v0.5h12.4c0.2,1.2,1.3,2.1,2.5,2.1c1.4,0,2.5-1.1,2.5-2.5
			C22.5,12.5,21.4,11.3,20,11.3z"/>
		
			<linearGradient id="SVGID_6_" gradientUnits="userSpaceOnUse" x1="459.3029" y1="216.54" x2="481.8003" y2="216.54" gradientTransform="matrix(1 0 0 1 -459.3029 -178.9325)">
			<stop  offset="0.1674" style="stop-color:#E5B824"/>
			<stop  offset="0.5023" style="stop-color:#A0C188"/>
			<stop  offset="0.7528" style="stop-color:#70C7CC"/>
			<stop  offset="0.8692" style="stop-color:#5ECAE7"/>
		</linearGradient>
		<path class="st10" d="M20,35.1c-1.2,0-2.3,0.9-2.5,2.1H5.1v0.5c0-1.4-1.1-2.5-2.5-2.5c-1.4,0-2.5,1.1-2.5,2.5
			c0,1.4,1.1,2.5,2.5,2.5c1.4,0,2.5-1.1,2.5-2.5v0.5h12.4c0.2,1.2,1.3,2.1,2.5,2.1c1.4,0,2.5-1.1,2.5-2.5
			C22.5,36.2,21.4,35.1,20,35.1z"/>
	</g>
</g>
</svg>
